<?xml version="1.0" encoding="UTF-8"?>
<!DOCTYPE svg PUBLIC "-//W3C//DTD SVG 1.1//EN" "http://www.w3.org/Graphics/SVG/1.1/DTD/svg11.dtd">
<!-- Creator: CorelDRAW 2021 (64 Bit) -->
<svg xmlns="http://www.w3.org/2000/svg" xml:space="preserve" width="329.154mm" height="305.267mm" version="1.1" style="shape-rendering:geometricPrecision; text-rendering:geometricPrecision; image-rendering:optimizeQuality; fill-rule:evenodd; clip-rule:evenodd"
viewBox="0 0 13754.24 12756.11"
 xmlns:xlink="http://www.w3.org/1999/xlink"
 xmlns:xodm="http://www.corel.com/coreldraw/odm/2003">
 <defs>
  <style type="text/css">
   <![CDATA[
    .fil0 {fill:white}
   ]]>
  </style>
 </defs>
 <g id="Camada_x0020_1">
  <metadata id="CorelCorpID_0Corel-Layer"/>
  <path class="fil0" d="M3496.91 592.65c-253.47,-563.56 -520.35,-574.84 -761.5,-584.7 -197.25,-8.46 -423.06,-7.94 -648.51,-7.94 -225.63,0 -592.28,84.79 -902.34,423.42 -310.24,338.63 -1184.56,1157.24 -1184.56,2822.15 0,1665.09 1212.77,3273.95 1381.81,3499.92 169.22,225.63 2341.1,3751.47 5780.73,5107.9 2858.63,1127.27 3440.35,903.04 4060.84,846.64 620.49,-56.41 2002.11,-818.43 2284.15,-1608.68 282.04,-790.07 282.04,-1467.3 197.43,-1608.86 -84.61,-141.02 -310.24,-225.63 -648.69,-394.85 -338.45,-169.22 -2002.11,-988.02 -2312.36,-1100.83 -310.25,-112.82 -535.87,-169.22 -761.5,169.58 -225.63,338.45 -873.8,1100.47 -1071.23,1326.1 -197.43,226.15 -394.85,254.36 -733.3,85.13 -338.45,-169.74 -1428.36,-526.71 -2721.31,-1679.55 -1006,-896.88 -1685.19,-2004.59 -1882.62,-2343.38 -197.43,-338.45 -21.16,-521.77 148.6,-690.47 151.94,-151.6 338.45,-395.03 507.67,-592.64 168.86,-197.61 225.27,-338.63 338.08,-564.26 112.82,-225.99 56.41,-423.57 -28.2,-592.8 -84.61,-169.22 -742.28,-1842.73 -1043.18,-2511.86l-0 0.01z"/>
 </g>
</svg>
