<?xml version="1.0" encoding="UTF-8"?>
<!DOCTYPE svg PUBLIC "-//W3C//DTD SVG 1.1//EN" "http://www.w3.org/Graphics/SVG/1.1/DTD/svg11.dtd">
<!-- Creator: CorelDRAW 2021 (64 Bit) -->
<svg xmlns="http://www.w3.org/2000/svg" xml:space="preserve" width="122.176mm" height="45.422mm" version="1.1" style="shape-rendering:geometricPrecision; text-rendering:geometricPrecision; image-rendering:optimizeQuality; fill-rule:evenodd; clip-rule:evenodd"
viewBox="0 0 12213.34 4540.62"
 xmlns:xlink="http://www.w3.org/1999/xlink"
 xmlns:xodm="http://www.corel.com/coreldraw/odm/2003">
 <defs>
  <style type="text/css">
   <![CDATA[
    .str1 {stroke:#FF6600;stroke-width:7.62;stroke-miterlimit:22.9256}
    .str0 {stroke:#FF6600;stroke-width:7.62;stroke-linejoin:bevel;stroke-miterlimit:22.9256}
    .fil1 {fill:none}
    .fil135 {fill:#B3B3B3}
    .fil134 {fill:#CCCCCC}
    .fil136 {fill:#FC4202}
    .fil133 {fill:#FC6B02}
    .fil137 {fill:#FDC602}
    .fil132 {fill:#FF6600;fill-rule:nonzero}
    .fil14 {fill:url(#id0)}
    .fil37 {fill:url(#id1)}
    .fil31 {fill:url(#id2)}
    .fil41 {fill:url(#id3)}
    .fil16 {fill:url(#id4)}
    .fil62 {fill:url(#id5)}
    .fil59 {fill:url(#id6)}
    .fil47 {fill:url(#id7)}
    .fil38 {fill:url(#id8)}
    .fil43 {fill:url(#id9)}
    .fil48 {fill:url(#id10)}
    .fil19 {fill:url(#id11)}
    .fil78 {fill:url(#id12)}
    .fil13 {fill:url(#id13)}
    .fil108 {fill:url(#id14)}
    .fil54 {fill:url(#id15)}
    .fil131 {fill:url(#id16)}
    .fil74 {fill:url(#id17)}
    .fil96 {fill:url(#id18)}
    .fil112 {fill:url(#id19)}
    .fil34 {fill:url(#id20)}
    .fil9 {fill:url(#id21)}
    .fil84 {fill:url(#id22)}
    .fil79 {fill:url(#id23)}
    .fil114 {fill:url(#id24)}
    .fil122 {fill:url(#id25)}
    .fil66 {fill:url(#id26)}
    .fil36 {fill:url(#id27)}
    .fil8 {fill:url(#id28)}
    .fil42 {fill:url(#id29)}
    .fil81 {fill:url(#id30)}
    .fil82 {fill:url(#id31)}
    .fil51 {fill:url(#id32)}
    .fil88 {fill:url(#id33)}
    .fil23 {fill:url(#id34)}
    .fil22 {fill:url(#id35)}
    .fil5 {fill:url(#id36)}
    .fil50 {fill:url(#id37)}
    .fil32 {fill:url(#id38)}
    .fil6 {fill:url(#id39)}
    .fil21 {fill:url(#id40)}
    .fil57 {fill:url(#id41)}
    .fil126 {fill:url(#id42)}
    .fil129 {fill:url(#id43)}
    .fil109 {fill:url(#id44)}
    .fil106 {fill:url(#id45)}
    .fil29 {fill:url(#id46)}
    .fil117 {fill:url(#id47)}
    .fil17 {fill:url(#id48)}
    .fil130 {fill:url(#id49)}
    .fil95 {fill:url(#id50)}
    .fil128 {fill:url(#id51)}
    .fil111 {fill:url(#id52)}
    .fil67 {fill:url(#id53)}
    .fil10 {fill:url(#id54)}
    .fil27 {fill:url(#id55)}
    .fil4 {fill:url(#id56)}
    .fil97 {fill:url(#id57)}
    .fil115 {fill:url(#id58)}
    .fil44 {fill:url(#id59)}
    .fil0 {fill:url(#id60)}
    .fil125 {fill:url(#id61)}
    .fil53 {fill:url(#id62)}
    .fil33 {fill:url(#id63)}
    .fil103 {fill:url(#id64)}
    .fil89 {fill:url(#id65)}
    .fil18 {fill:url(#id66)}
    .fil58 {fill:url(#id67)}
    .fil56 {fill:url(#id68)}
    .fil77 {fill:url(#id69)}
    .fil73 {fill:url(#id70)}
    .fil20 {fill:url(#id71)}
    .fil7 {fill:url(#id72)}
    .fil52 {fill:url(#id73)}
    .fil64 {fill:url(#id74)}
    .fil63 {fill:url(#id75)}
    .fil75 {fill:url(#id76)}
    .fil92 {fill:url(#id77)}
    .fil35 {fill:url(#id78)}
    .fil98 {fill:url(#id79)}
    .fil2 {fill:url(#id80)}
    .fil83 {fill:url(#id81)}
    .fil70 {fill:url(#id82)}
    .fil93 {fill:url(#id83)}
    .fil65 {fill:url(#id84)}
    .fil105 {fill:url(#id85)}
    .fil104 {fill:url(#id86)}
    .fil72 {fill:url(#id87)}
    .fil71 {fill:url(#id88)}
    .fil127 {fill:url(#id89)}
    .fil99 {fill:url(#id90)}
    .fil110 {fill:url(#id91)}
    .fil85 {fill:url(#id92)}
    .fil102 {fill:url(#id93)}
    .fil60 {fill:url(#id94)}
    .fil91 {fill:url(#id95)}
    .fil55 {fill:url(#id96)}
    .fil39 {fill:url(#id97)}
    .fil11 {fill:url(#id98)}
    .fil30 {fill:url(#id99)}
    .fil45 {fill:url(#id100)}
    .fil3 {fill:url(#id101)}
    .fil116 {fill:url(#id102)}
    .fil87 {fill:url(#id103)}
    .fil80 {fill:url(#id104)}
    .fil90 {fill:url(#id105)}
    .fil49 {fill:url(#id106)}
    .fil107 {fill:url(#id107)}
    .fil101 {fill:url(#id108)}
    .fil119 {fill:url(#id109)}
    .fil113 {fill:url(#id110)}
    .fil68 {fill:url(#id111)}
    .fil124 {fill:url(#id112)}
    .fil40 {fill:url(#id113)}
    .fil15 {fill:url(#id114)}
    .fil25 {fill:url(#id115)}
    .fil94 {fill:url(#id116)}
    .fil28 {fill:url(#id117)}
    .fil69 {fill:url(#id118)}
    .fil26 {fill:url(#id119)}
    .fil24 {fill:url(#id120)}
    .fil123 {fill:url(#id121)}
    .fil86 {fill:url(#id122)}
    .fil12 {fill:url(#id123)}
    .fil61 {fill:url(#id124)}
    .fil76 {fill:url(#id125)}
    .fil100 {fill:url(#id126)}
    .fil46 {fill:url(#id127)}
    .fil120 {fill:url(#id128)}
    .fil121 {fill:url(#id129)}
    .fil118 {fill:url(#id130)}
   ]]>
  </style>
  <linearGradient id="id0" gradientUnits="userSpaceOnUse" x1="800.74" y1="1201.26" x2="950.06" y2="1059.91">
   <stop offset="0" style="stop-opacity:1; stop-color:#FF6600"/>
   <stop offset="1" style="stop-opacity:1; stop-color:#AD0000"/>
  </linearGradient>
  <linearGradient id="id1" gradientUnits="userSpaceOnUse" xlink:href="#id0" x1="1505.57" y1="1598.05" x2="1620.84" y2="1598.05">
  </linearGradient>
  <linearGradient id="id2" gradientUnits="userSpaceOnUse" xlink:href="#id0" x1="910.91" y1="2190.15" x2="1060.1" y2="2156.81">
  </linearGradient>
  <linearGradient id="id3" gradientUnits="userSpaceOnUse" xlink:href="#id0" x1="1567.16" y1="2499.54" x2="1686.04" y2="2308.62">
  </linearGradient>
  <linearGradient id="id4" gradientUnits="userSpaceOnUse" xlink:href="#id0" x1="887.78" y1="1321.27" x2="1045.12" y2="1249.36">
  </linearGradient>
  <linearGradient id="id5" gradientUnits="userSpaceOnUse" xlink:href="#id0" x1="3305.29" y1="1747.82" x2="3350.48" y2="1791.19">
  </linearGradient>
  <linearGradient id="id6" gradientUnits="userSpaceOnUse" xlink:href="#id0" x1="3323.13" y1="1542.43" x2="3369.81" y2="1531.41">
  </linearGradient>
  <linearGradient id="id7" gradientUnits="userSpaceOnUse" xlink:href="#id0" x1="2087.89" y1="2254.31" x2="2189.4" y2="2284.82">
  </linearGradient>
  <linearGradient id="id8" gradientUnits="userSpaceOnUse" xlink:href="#id0" x1="1505.6" y1="2190.23" x2="1623.66" y2="2181.87">
  </linearGradient>
  <linearGradient id="id9" gradientUnits="userSpaceOnUse" xlink:href="#id0" x1="1829.27" y1="2488.79" x2="1714.79" y2="2313.9">
  </linearGradient>
  <linearGradient id="id10" gradientUnits="userSpaceOnUse" xlink:href="#id0" x1="2070.4" y1="2330.09" x2="2178.36" y2="2387.79">
  </linearGradient>
  <linearGradient id="id11" gradientUnits="userSpaceOnUse" xlink:href="#id0" x1="355.34" y1="1406.82" x2="523.73" y2="1401.78">
  </linearGradient>
  <linearGradient id="id12" gradientUnits="userSpaceOnUse" xlink:href="#id0" x1="4533.13" y1="1459.45" x2="4540.76" y2="1449.14">
  </linearGradient>
  <linearGradient id="id13" gradientUnits="userSpaceOnUse" xlink:href="#id0" x1="746.81" y1="1152.43" x2="865.57" y2="994.6">
  </linearGradient>
  <linearGradient id="id14" gradientUnits="userSpaceOnUse" xlink:href="#id0" x1="7043.35" y1="1976.14" x2="6933.62" y2="1965.91">
  </linearGradient>
  <linearGradient id="id15" gradientUnits="userSpaceOnUse" xlink:href="#id0" x1="3129.61" y1="1202.09" x2="3201.84" y2="1044.56">
  </linearGradient>
  <linearGradient id="id16" gradientUnits="userSpaceOnUse" xlink:href="#id0" x1="8327.15" y1="2501.82" x2="8128.36" y2="2579.16">
  </linearGradient>
  <linearGradient id="id17" gradientUnits="userSpaceOnUse" xlink:href="#id0" x1="4382.58" y1="1230.74" x2="4426.94" y2="1080.77">
  </linearGradient>
  <linearGradient id="id18" gradientUnits="userSpaceOnUse" xlink:href="#id0" x1="5491.03" y1="2501.82" x2="5404.13" y2="2579.16">
  </linearGradient>
  <linearGradient id="id19" gradientUnits="userSpaceOnUse" xlink:href="#id0" x1="7069.33" y1="1632.84" x2="6954.61" y2="1610.17">
  </linearGradient>
  <linearGradient id="id20" gradientUnits="userSpaceOnUse" xlink:href="#id0" x1="869.9" y1="2395.6" x2="1031.08" y2="2502.51">
  </linearGradient>
  <linearGradient id="id21" gradientUnits="userSpaceOnUse" xlink:href="#id0" x1="481.41" y1="1089.1" x2="440.32" y2="940.62">
  </linearGradient>
  <linearGradient id="id22" gradientUnits="userSpaceOnUse" xlink:href="#id0" x1="4155.02" y1="1760.82" x2="4132.45" y2="1615.09">
  </linearGradient>
  <linearGradient id="id23" gradientUnits="userSpaceOnUse" xlink:href="#id0" x1="4281.01" y1="2468.04" x2="4561.69" y2="2125.19">
  </linearGradient>
  <linearGradient id="id24" gradientUnits="userSpaceOnUse" xlink:href="#id0" x1="7089.12" y1="1452.64" x2="6971.6" y2="1425.65">
  </linearGradient>
  <linearGradient id="id25" gradientUnits="userSpaceOnUse" xlink:href="#id0" x1="6339.89" y1="1364.68" x2="6252.29" y2="1400.64">
  </linearGradient>
  <linearGradient id="id26" gradientUnits="userSpaceOnUse" xlink:href="#id0" x1="2971.11" y1="1928.47" x2="2892.47" y2="1752.94">
  </linearGradient>
  <linearGradient id="id27" gradientUnits="userSpaceOnUse" xlink:href="#id0" x1="1401.84" y1="1106.13" x2="1401.84" y2="969.17">
  </linearGradient>
  <linearGradient id="id28" gradientUnits="userSpaceOnUse" xlink:href="#id0" x1="422.01" y1="1114.54" x2="336.75" y2="959.23">
  </linearGradient>
  <linearGradient id="id29" gradientUnits="userSpaceOnUse" xlink:href="#id0" x1="1708.42" y1="2534.2" x2="1696.84" y2="2331.66">
  </linearGradient>
  <linearGradient id="id30" gradientUnits="userSpaceOnUse" xlink:href="#id0" x1="3941.28" y1="1820.12" x2="3943.42" y2="1653.84">
  </linearGradient>
  <linearGradient id="id31" gradientUnits="userSpaceOnUse" xlink:href="#id0" x1="3997.87" y1="1821.22" x2="3992.11" y2="1650.09">
  </linearGradient>
  <linearGradient id="id32" gradientUnits="userSpaceOnUse" xlink:href="#id0" x1="2898.16" y1="1110.9" x2="2906.2" y2="969.28">
  </linearGradient>
  <linearGradient id="id33" gradientUnits="userSpaceOnUse" xlink:href="#id0" x1="5264.99" y1="2248.74" x2="5264.99" y2="2066.08">
  </linearGradient>
  <linearGradient id="id34" gradientUnits="userSpaceOnUse" xlink:href="#id0" x1="552.37" y1="1748.54" x2="684.55" y2="1593.54">
  </linearGradient>
  <linearGradient id="id35" gradientUnits="userSpaceOnUse" xlink:href="#id0" x1="487.69" y1="1699.01" x2="639.67" y2="1541.82">
  </linearGradient>
  <linearGradient id="id36" gradientUnits="userSpaceOnUse" xlink:href="#id0" x1="548.5" y1="2532.21" x2="546.01" y2="2332.04">
  </linearGradient>
  <linearGradient id="id37" gradientUnits="userSpaceOnUse" xlink:href="#id0" x1="2670.48" y1="1106.13" x2="2670.48" y2="969.17">
  </linearGradient>
  <linearGradient id="id38" gradientUnits="userSpaceOnUse" xlink:href="#id0" x1="917.93" y1="2261.51" x2="1060.81" y2="2273.73">
  </linearGradient>
  <linearGradient id="id39" gradientUnits="userSpaceOnUse" xlink:href="#id0" x1="684.06" y1="2504.07" x2="559.26" y2="2310.34">
  </linearGradient>
  <linearGradient id="id40" gradientUnits="userSpaceOnUse" xlink:href="#id0" x1="431.59" y1="1630.78" x2="589.18" y2="1494.37">
  </linearGradient>
  <linearGradient id="id41" gradientUnits="userSpaceOnUse" xlink:href="#id0" x1="3285.23" y1="1386.38" x2="3351.88" y2="1321.04">
  </linearGradient>
  <linearGradient id="id42" gradientUnits="userSpaceOnUse" xlink:href="#id0" x1="8147.61" y1="1496.75" x2="7989.97" y2="1518.37">
  </linearGradient>
  <linearGradient id="id43" gradientUnits="userSpaceOnUse" xlink:href="#id0" x1="7945.43" y1="2070.07" x2="7452.53" y2="1671.18">
  </linearGradient>
  <linearGradient id="id44" gradientUnits="userSpaceOnUse" xlink:href="#id0" x1="7048.35" y1="1884.83" x2="6937.23" y2="1870.5">
  </linearGradient>
  <linearGradient id="id45" gradientUnits="userSpaceOnUse" xlink:href="#id0" x1="7038.02" y1="2398.75" x2="6927.8" y2="2393.01">
  </linearGradient>
  <linearGradient id="id46" gradientUnits="userSpaceOnUse" xlink:href="#id0" x1="845.53" y1="2059.11" x2="1009.6" y2="1932.64">
  </linearGradient>
  <linearGradient id="id47" gradientUnits="userSpaceOnUse" xlink:href="#id0" x1="6417.47" y1="1723.92" x2="6319.46" y2="1780.37">
  </linearGradient>
  <linearGradient id="id48" gradientUnits="userSpaceOnUse" xlink:href="#id0" x1="912.1" y1="1366.52" x2="1057.05" y2="1325.2">
  </linearGradient>
  <linearGradient id="id49" gradientUnits="userSpaceOnUse" xlink:href="#id0" x1="8054.48" y1="1106.13" x2="8054.48" y2="969.17">
  </linearGradient>
  <linearGradient id="id50" gradientUnits="userSpaceOnUse" xlink:href="#id0" x1="5274.31" y1="1106.13" x2="5274.31" y2="969.17">
  </linearGradient>
  <linearGradient id="id51" gradientUnits="userSpaceOnUse" xlink:href="#id0" x1="8133.51" y1="1317.42" x2="7979.12" y2="1329.54">
  </linearGradient>
  <linearGradient id="id52" gradientUnits="userSpaceOnUse" xlink:href="#id0" x1="7061.15" y1="1724.77" x2="6946.83" y2="1703.6">
  </linearGradient>
  <linearGradient id="id53" gradientUnits="userSpaceOnUse" xlink:href="#id0" x1="2996.03" y1="1860.75" x2="2943.57" y2="1757.03">
  </linearGradient>
  <linearGradient id="id54" gradientUnits="userSpaceOnUse" xlink:href="#id0" x1="549.98" y1="1075.28" x2="548.9" y2="937.77">
  </linearGradient>
  <linearGradient id="id55" gradientUnits="userSpaceOnUse" xlink:href="#id0" x1="744.04" y1="1929.7" x2="891.98" y2="1770.6">
  </linearGradient>
  <linearGradient id="id56" gradientUnits="userSpaceOnUse" xlink:href="#id0" x1="401.45" y1="2505.97" x2="532.61" y2="2304.14">
  </linearGradient>
  <linearGradient id="id57" gradientUnits="userSpaceOnUse" xlink:href="#id0" x1="6087.3" y1="1870.62" x2="6019.31" y2="1870.62">
  </linearGradient>
  <linearGradient id="id58" gradientUnits="userSpaceOnUse" xlink:href="#id0" x1="7093.99" y1="1381.8" x2="6981.75" y2="1359.71">
  </linearGradient>
  <linearGradient id="id59" gradientUnits="userSpaceOnUse" xlink:href="#id0" x1="1985.24" y1="1106.13" x2="1985.24" y2="969.17">
  </linearGradient>
  <linearGradient id="id60" gradientUnits="userSpaceOnUse" xlink:href="#id0" x1="287.3" y1="2386.36" x2="170.75" y2="2133.37">
  </linearGradient>
  <linearGradient id="id61" gradientUnits="userSpaceOnUse" xlink:href="#id0" x1="8157.96" y1="1584.11" x2="7998" y2="1612.53">
  </linearGradient>
  <linearGradient id="id62" gradientUnits="userSpaceOnUse" xlink:href="#id0" x1="3056.6" y1="1159.6" x2="3109.92" y2="997.41">
  </linearGradient>
  <linearGradient id="id63" gradientUnits="userSpaceOnUse" xlink:href="#id0" x1="899.91" y1="2332.68" x2="1055.02" y2="2389.81">
  </linearGradient>
  <linearGradient id="id64" gradientUnits="userSpaceOnUse" xlink:href="#id0" x1="6770.6" y1="1887.78" x2="6662.66" y2="1834.41">
  </linearGradient>
  <linearGradient id="id65" gradientUnits="userSpaceOnUse" xlink:href="#id0" x1="5397.65" y1="1855.72" x2="5284.79" y2="1954.96">
  </linearGradient>
  <linearGradient id="id66" gradientUnits="userSpaceOnUse" xlink:href="#id0" x1="375.38" y1="1266.16" x2="549.03" y2="1379.31">
  </linearGradient>
  <linearGradient id="id67" gradientUnits="userSpaceOnUse" xlink:href="#id0" x1="3310.38" y1="1460.67" x2="3365.4" y2="1426.15">
  </linearGradient>
  <linearGradient id="id68" gradientUnits="userSpaceOnUse" xlink:href="#id0" x1="3244.13" y1="1316.38" x2="3323.44" y2="1212.38">
  </linearGradient>
  <linearGradient id="id69" gradientUnits="userSpaceOnUse" xlink:href="#id0" x1="4520.01" y1="1415.86" x2="4539.08" y2="1379.43">
  </linearGradient>
  <linearGradient id="id70" gradientUnits="userSpaceOnUse" xlink:href="#id0" x1="4310.06" y1="1185.82" x2="4349.49" y2="1024.12">
  </linearGradient>
  <linearGradient id="id71" gradientUnits="userSpaceOnUse" xlink:href="#id0" x1="374.53" y1="1548.48" x2="555.6" y2="1436.7">
  </linearGradient>
  <linearGradient id="id72" gradientUnits="userSpaceOnUse" xlink:href="#id0" x1="370.62" y1="1150.08" x2="243.47" y2="997">
  </linearGradient>
  <linearGradient id="id73" gradientUnits="userSpaceOnUse" xlink:href="#id0" x1="2978.2" y1="1127.61" x2="3006.25" y2="975.25">
  </linearGradient>
  <linearGradient id="id74" gradientUnits="userSpaceOnUse" xlink:href="#id0" x1="2773.57" y1="1586.58" x2="2838.12" y2="1586.58">
  </linearGradient>
  <linearGradient id="id75" gradientUnits="userSpaceOnUse" xlink:href="#id0" x1="2773.57" y1="2407.57" x2="2838.12" y2="2407.57">
  </linearGradient>
  <linearGradient id="id76" gradientUnits="userSpaceOnUse" xlink:href="#id0" x1="4441.16" y1="1288.52" x2="4489.09" y2="1163.01">
  </linearGradient>
  <linearGradient id="id77" gradientUnits="userSpaceOnUse" xlink:href="#id0" x1="5302.8" y1="1409.17" x2="5260.36" y2="1425.43">
  </linearGradient>
  <linearGradient id="id78" gradientUnits="userSpaceOnUse" xlink:href="#id0" x1="852.06" y1="2446.57" x2="991.73" y2="2569.95">
  </linearGradient>
  <linearGradient id="id79" gradientUnits="userSpaceOnUse" xlink:href="#id0" x1="6235.57" y1="1106.13" x2="6235.57" y2="969.17">
  </linearGradient>
  <linearGradient id="id80" gradientUnits="userSpaceOnUse" xlink:href="#id0" x1="292.25" y1="2298.77" x2="471.83" y2="2236.63">
  </linearGradient>
  <linearGradient id="id81" gradientUnits="userSpaceOnUse" xlink:href="#id0" x1="4102.72" y1="1808.74" x2="4066.15" y2="1622.73">
  </linearGradient>
  <linearGradient id="id82" gradientUnits="userSpaceOnUse" xlink:href="#id0" x1="4059.62" y1="1110.2" x2="4064.25" y2="969.24">
  </linearGradient>
  <linearGradient id="id83" gradientUnits="userSpaceOnUse" xlink:href="#id0" x1="5296.66" y1="1317.42" x2="5255.62" y2="1329.54">
  </linearGradient>
  <linearGradient id="id84" gradientUnits="userSpaceOnUse" xlink:href="#id0" x1="2863.54" y1="1966.26" x2="2838.88" y2="1782.63">
  </linearGradient>
  <linearGradient id="id85" gradientUnits="userSpaceOnUse" xlink:href="#id0" x1="7102.02" y1="1106.13" x2="7102.02" y2="969.17">
  </linearGradient>
  <linearGradient id="id86" gradientUnits="userSpaceOnUse" xlink:href="#id0" x1="6970.61" y1="1555.21" x2="6681.16" y2="1324.71">
  </linearGradient>
  <linearGradient id="id87" gradientUnits="userSpaceOnUse" xlink:href="#id0" x1="4233.38" y1="1148.55" x2="4260" y2="991.53">
  </linearGradient>
  <linearGradient id="id88" gradientUnits="userSpaceOnUse" xlink:href="#id0" x1="4148.03" y1="1124.68" x2="4164.31" y2="974.06">
  </linearGradient>
  <linearGradient id="id89" gradientUnits="userSpaceOnUse" xlink:href="#id0" x1="8139.59" y1="1409.17" x2="7983.92" y2="1425.43">
  </linearGradient>
  <linearGradient id="id90" gradientUnits="userSpaceOnUse" xlink:href="#id0" x1="6652.57" y1="2253.37" x2="6657.46" y2="2070.02">
  </linearGradient>
  <linearGradient id="id91" gradientUnits="userSpaceOnUse" xlink:href="#id0" x1="7053.17" y1="1805.53" x2="6942.11" y2="1789.37">
  </linearGradient>
  <linearGradient id="id92" gradientUnits="userSpaceOnUse" xlink:href="#id0" x1="4206.07" y1="1707.48" x2="4157.84" y2="1575.23">
  </linearGradient>
  <linearGradient id="id93" gradientUnits="userSpaceOnUse" xlink:href="#id0" x1="6754.96" y1="1965.86" x2="6645.06" y2="1915.26">
  </linearGradient>
  <linearGradient id="id94" gradientUnits="userSpaceOnUse" xlink:href="#id0" x1="3322.61" y1="1625.89" x2="3369.8" y2="1638.92">
  </linearGradient>
  <linearGradient id="id95" gradientUnits="userSpaceOnUse" xlink:href="#id0" x1="5310.91" y1="1496.75" x2="5266.31" y2="1518.37">
  </linearGradient>
  <linearGradient id="id96" gradientUnits="userSpaceOnUse" xlink:href="#id0" x1="3191.86" y1="1253.62" x2="3273.1" y2="1116.84">
  </linearGradient>
  <linearGradient id="id97" gradientUnits="userSpaceOnUse" xlink:href="#id0" x1="1509.03" y1="2296.63" x2="1634.1" y2="2262.35">
  </linearGradient>
  <linearGradient id="id98" gradientUnits="userSpaceOnUse" xlink:href="#id0" x1="620.04" y1="1085.88" x2="652.51" y2="939.89">
  </linearGradient>
  <linearGradient id="id99" gradientUnits="userSpaceOnUse" xlink:href="#id0" x1="885.31" y1="2123.12" x2="1045.38" y2="2040.79">
  </linearGradient>
  <linearGradient id="id100" gradientUnits="userSpaceOnUse" xlink:href="#id0" x1="2100.86" y1="1596.96" x2="2192.32" y2="1596.96">
  </linearGradient>
  <linearGradient id="id101" gradientUnits="userSpaceOnUse" xlink:href="#id0" x1="323.84" y1="2409.22" x2="498.31" y2="2283.48">
  </linearGradient>
  <linearGradient id="id102" gradientUnits="userSpaceOnUse" xlink:href="#id0" x1="6573.4" y1="2039.47" x2="6340.57" y2="2230.95">
  </linearGradient>
  <linearGradient id="id103" gradientUnits="userSpaceOnUse" xlink:href="#id0" x1="3924.19" y1="1513.49" x2="3942.71" y2="1513.49">
  </linearGradient>
  <linearGradient id="id104" gradientUnits="userSpaceOnUse" xlink:href="#id0" x1="3924.19" y1="2293.48" x2="3942.71" y2="2293.48">
  </linearGradient>
  <linearGradient id="id105" gradientUnits="userSpaceOnUse" xlink:href="#id0" x1="5321.41" y1="1584.11" x2="5274.2" y2="1612.53">
  </linearGradient>
  <linearGradient id="id106" gradientUnits="userSpaceOnUse" xlink:href="#id0" x1="2041.46" y1="2395.51" x2="2158.14" y2="2491.06">
  </linearGradient>
  <linearGradient id="id107" gradientUnits="userSpaceOnUse" xlink:href="#id0" x1="7039.67" y1="2067.51" x2="6932" y2="2062.73">
  </linearGradient>
  <linearGradient id="id108" gradientUnits="userSpaceOnUse" xlink:href="#id0" x1="6737.29" y1="2053.12" x2="6629.86" y2="2008.71">
  </linearGradient>
  <linearGradient id="id109" gradientUnits="userSpaceOnUse" xlink:href="#id0" x1="6378.34" y1="1585.99" x2="6295.04" y2="1622.38">
  </linearGradient>
  <linearGradient id="id110" gradientUnits="userSpaceOnUse" xlink:href="#id0" x1="7078.63" y1="1544.28" x2="6962.56" y2="1519.45">
  </linearGradient>
  <linearGradient id="id111" gradientUnits="userSpaceOnUse" xlink:href="#id0" x1="3024.91" y1="1826.51" x2="2948.85" y2="1727">
  </linearGradient>
  <linearGradient id="id112" gradientUnits="userSpaceOnUse" xlink:href="#id0" x1="8233.97" y1="1855.72" x2="8008.82" y2="1954.96">
  </linearGradient>
  <linearGradient id="id113" gradientUnits="userSpaceOnUse" xlink:href="#id0" x1="1522.76" y1="2384.31" x2="1646.93" y2="2313.44">
  </linearGradient>
  <linearGradient id="id114" gradientUnits="userSpaceOnUse" xlink:href="#id0" x1="847.98" y1="1260.5" x2="1011.47" y2="1149.19">
  </linearGradient>
  <linearGradient id="id115" gradientUnits="userSpaceOnUse" xlink:href="#id0" x1="667.59" y1="1819" x2="766.18" y2="1685.25">
  </linearGradient>
  <linearGradient id="id116" gradientUnits="userSpaceOnUse" xlink:href="#id0" x1="5109.92" y1="2070.07" x2="4727.69" y2="1671.18">
  </linearGradient>
  <linearGradient id="id117" gradientUnits="userSpaceOnUse" xlink:href="#id0" x1="796.66" y1="1993.13" x2="954.52" y2="1841.72">
  </linearGradient>
  <linearGradient id="id118" gradientUnits="userSpaceOnUse" xlink:href="#id0" x1="3816.17" y1="1106.13" x2="3816.17" y2="969.17">
  </linearGradient>
  <linearGradient id="id119" gradientUnits="userSpaceOnUse" xlink:href="#id0" x1="680.55" y1="1872.48" x2="828.15" y2="1702.63">
  </linearGradient>
  <linearGradient id="id120" gradientUnits="userSpaceOnUse" xlink:href="#id0" x1="607.28" y1="1806.89" x2="747.91" y2="1635.02">
  </linearGradient>
  <linearGradient id="id121" gradientUnits="userSpaceOnUse" xlink:href="#id0" x1="8045.16" y1="2248.74" x2="8045.16" y2="2066.08">
  </linearGradient>
  <linearGradient id="id122" gradientUnits="userSpaceOnUse" xlink:href="#id0" x1="4226.94" y1="1585.49" x2="4204.01" y2="1539.4">
  </linearGradient>
  <linearGradient id="id123" gradientUnits="userSpaceOnUse" xlink:href="#id0" x1="684.37" y1="1113.25" x2="760.85" y2="954.78">
  </linearGradient>
  <linearGradient id="id124" gradientUnits="userSpaceOnUse" xlink:href="#id0" x1="3308.38" y1="1700.39" x2="3364.77" y2="1741.87">
  </linearGradient>
  <linearGradient id="id125" gradientUnits="userSpaceOnUse" xlink:href="#id0" x1="4490.7" y1="1349.49" x2="4524.4" y2="1271.01">
  </linearGradient>
  <linearGradient id="id126" gradientUnits="userSpaceOnUse" xlink:href="#id0" x1="6721.91" y1="2139.57" x2="6616.86" y2="2099.54">
  </linearGradient>
  <linearGradient id="id127" gradientUnits="userSpaceOnUse" xlink:href="#id0" x1="2098.15" y1="2174.27" x2="2192.3" y2="2182.59">
  </linearGradient>
  <linearGradient id="id128" gradientUnits="userSpaceOnUse" xlink:href="#id0" x1="6372.84" y1="1526.21" x2="6279.24" y2="1571.67">
  </linearGradient>
  <linearGradient id="id129" gradientUnits="userSpaceOnUse" xlink:href="#id0" x1="6356.45" y1="1439.36" x2="6263.13" y2="1482.61">
  </linearGradient>
  <linearGradient id="id130" gradientUnits="userSpaceOnUse" xlink:href="#id0" x1="6397.57" y1="1637.82" x2="6300.53" y2="1689.87">
  </linearGradient>
 </defs>
 <g id="Camada_x0020_1">
  <metadata id="CorelCorpID_0Corel-Layer"/>
  <g id="_1923570348576">
   <g>
    <polygon class="fil0" points="4.25,2390.84 179.58,2202.5 453.8,2128.89 289.91,2314.15 "/>
    <polygon class="fil1 str0" points="4.25,2390.84 179.58,2202.5 453.8,2128.89 289.91,2314.15 "/>
    <polygon class="fil2" points="289.91,2314.15 453.8,2128.89 455.44,2141.21 457.34,2153.17 459.5,2164.8 461.92,2176.04 464.6,2186.95 467.53,2197.51 470.72,2207.7 474.16,2217.56 311.12,2406.51 307.52,2396.25 304.19,2385.64 301.14,2374.64 298.36,2363.29 295.84,2351.56 293.59,2339.45 291.61,2326.99 "/>
    <polygon class="fil3" points="311.12,2406.51 474.16,2217.56 477.88,2227.03 481.85,2236.17 486.08,2244.94 490.55,2253.35 495.29,2261.41 500.28,2269.12 505.51,2276.47 511.02,2283.44 349.51,2475.15 343.78,2467.88 338.31,2460.23 333.11,2452.2 328.19,2443.81 323.53,2435.04 319.13,2425.9 314.99,2416.4 "/>
    <polygon class="fil1 str0" points="289.91,2314.15 453.8,2128.89 455.44,2141.21 457.34,2153.17 459.5,2164.8 461.92,2176.04 464.6,2186.95 467.53,2197.51 470.72,2207.7 474.16,2217.56 477.88,2227.03 481.85,2236.17 486.08,2244.94 490.55,2253.35 495.29,2261.41 500.28,2269.12 505.51,2276.47 511.02,2283.44 349.51,2475.15 343.78,2467.88 338.31,2460.23 333.11,2452.2 328.19,2443.81 323.53,2435.04 319.13,2425.9 314.99,2416.4 311.12,2406.51 307.52,2396.25 304.19,2385.64 301.14,2374.64 298.36,2363.29 295.84,2351.56 293.59,2339.45 291.61,2326.99 "/>
    <polygon class="fil4" points="349.51,2475.15 511.02,2283.44 516.74,2290.09 522.66,2296.32 528.78,2302.11 535.08,2307.46 541.58,2312.37 548.27,2316.86 555.16,2320.94 562.22,2324.58 569.48,2327.77 576.93,2330.55 584.56,2332.9 426.11,2526.67 418.15,2524.22 410.41,2521.33 402.84,2518 395.48,2514.21 388.31,2509.97 381.34,2505.3 374.57,2500.17 368,2494.59 361.63,2488.56 355.47,2482.07 "/>
    <polygon class="fil5" points="426.11,2526.67 584.56,2332.9 592.36,2334.81 600.37,2336.31 608.55,2337.38 616.91,2338 625.46,2338.21 640.53,2337.53 654.83,2335.47 668.41,2332.04 513.45,2525.77 499.32,2529.36 484.41,2531.5 468.72,2532.22 459.81,2531.99 451.09,2531.33 442.58,2530.22 434.24,2528.66 "/>
    <polygon class="fil6" points="513.45,2525.77 668.41,2332.04 681.23,2327.24 693.33,2321.04 704.69,2313.48 715.33,2304.56 725.25,2294.25 729.88,2288.65 577.48,2480.58 572.66,2486.41 562.32,2497.15 551.25,2506.45 539.41,2514.32 526.81,2520.77 "/>
    <polygon class="fil1 str0" points="349.51,2475.15 511.02,2283.44 516.74,2290.09 522.66,2296.32 528.78,2302.11 535.08,2307.46 541.58,2312.37 548.27,2316.86 555.16,2320.94 562.22,2324.58 569.48,2327.77 576.93,2330.55 584.56,2332.9 592.36,2334.81 600.37,2336.31 608.55,2337.38 616.91,2338 625.46,2338.21 640.53,2337.53 654.83,2335.47 668.41,2332.04 681.23,2327.24 693.33,2321.04 704.69,2313.48 715.33,2304.56 725.25,2294.25 729.88,2288.65 577.48,2480.58 572.66,2486.41 562.32,2497.15 551.25,2506.45 539.41,2514.32 526.81,2520.77 513.45,2525.77 499.32,2529.36 484.41,2531.5 468.72,2532.22 459.81,2531.99 451.09,2531.33 442.58,2530.22 434.24,2528.66 426.11,2526.67 418.15,2524.22 410.41,2521.33 402.84,2518 395.48,2514.21 388.31,2509.97 381.34,2505.3 374.57,2500.17 368,2494.59 361.63,2488.56 355.47,2482.07 "/>
    <polygon class="fil7" points="189.85,1164.64 357.76,1025.36 373.54,1013.28 389.87,1002.09 406.78,991.81 424.23,982.43 259.1,1119.93 240.93,1129.71 223.31,1140.41 206.29,1152.07 "/>
    <polygon class="fil8" points="259.1,1119.93 424.23,982.43 442.25,973.94 460.82,966.34 479.95,959.65 499.66,953.84 337.67,1090.15 317.15,1096.2 297.22,1103.18 277.87,1111.09 "/>
    <polygon class="fil9" points="337.67,1090.15 499.66,953.84 519.91,948.93 540.74,944.91 562.11,941.79 584.07,939.56 425.59,1075.29 402.73,1077.59 380.47,1080.85 358.76,1085.03 "/>
    <polygon class="fil10" points="425.59,1075.29 584.07,939.56 606.57,938.22 629.65,937.77 651.74,938.12 673.29,939.18 518.54,1074.88 496.1,1073.79 473.08,1073.42 449.04,1073.89 "/>
    <polygon class="fil11" points="518.54,1074.88 673.29,939.18 694.3,940.93 714.74,943.39 734.65,946.55 754.02,950.42 602.63,1086.59 582.46,1082.56 561.72,1079.26 540.42,1076.71 "/>
    <polygon class="fil12" points="602.63,1086.59 754.02,950.42 772.83,954.98 791.08,960.24 808.8,966.19 825.97,972.85 842.6,980.21 694.9,1117.61 677.58,1109.95 659.7,1103.02 641.25,1096.82 622.22,1091.34 "/>
    <polygon class="fil13" points="694.9,1117.61 842.6,980.21 858.67,988.27 874.19,997.01 889.17,1006.46 903.6,1016.6 917.48,1027.44 772.9,1166.82 758.45,1155.53 743.41,1144.97 727.81,1135.12 711.64,1126.01 "/>
    <polygon class="fil1 str0" points="189.85,1164.64 357.76,1025.36 373.54,1013.28 389.87,1002.09 406.78,991.81 424.23,982.43 442.25,973.94 460.82,966.34 479.95,959.65 499.66,953.84 519.91,948.93 540.74,944.91 562.11,941.79 584.07,939.56 606.57,938.22 629.65,937.77 651.74,938.12 673.29,939.18 694.3,940.93 714.74,943.39 734.65,946.55 754.02,950.42 772.83,954.98 791.08,960.24 808.8,966.19 825.97,972.85 842.6,980.21 858.67,988.27 874.19,997.01 889.17,1006.46 903.6,1016.6 917.48,1027.44 772.9,1166.82 758.45,1155.53 743.41,1144.97 727.81,1135.12 711.64,1126.01 694.9,1117.61 677.58,1109.95 659.7,1103.02 641.25,1096.82 622.22,1091.34 602.63,1086.59 582.46,1082.56 561.72,1079.26 540.42,1076.71 518.54,1074.88 496.1,1073.79 473.08,1073.42 449.04,1073.89 425.59,1075.29 402.73,1077.59 380.47,1080.85 358.76,1085.03 337.67,1090.15 317.15,1096.2 297.22,1103.18 277.87,1111.09 259.1,1119.93 240.93,1129.71 223.31,1140.41 206.29,1152.07 "/>
    <polygon class="fil14" points="772.9,1166.82 917.48,1027.44 930.73,1038.97 943.4,1051.14 955.48,1063.99 966.97,1077.49 977.9,1091.67 835.84,1233.73 824.46,1218.96 812.49,1204.89 799.9,1191.5 786.71,1178.82 "/>
    <polygon class="fil15" points="835.84,1233.73 977.9,1091.67 988.22,1106.52 997.95,1122.03 1007.1,1138.21 1015.66,1155.07 1023.6,1172.59 883.45,1318.02 875.16,1299.76 866.26,1282.2 856.73,1265.35 846.59,1249.19 "/>
    <polygon class="fil16" points="883.45,1318.02 1023.6,1172.59 1030.97,1190.78 1037.73,1209.66 1043.89,1229.2 1049.45,1249.42 910.38,1398.04 904.58,1376.98 898.16,1356.63 891.12,1336.96 "/>
    <polygon class="fil17" points="910.38,1398.04 1049.45,1249.42 1054.42,1270.33 1058.77,1291.9 920.08,1442.29 915.54,1419.82 "/>
    <polygon class="fil1 str0" points="772.9,1166.82 917.48,1027.44 930.73,1038.97 943.4,1051.14 955.48,1063.99 966.97,1077.49 977.9,1091.67 988.22,1106.52 997.95,1122.03 1007.1,1138.21 1015.66,1155.07 1023.6,1172.59 1030.97,1190.78 1037.73,1209.66 1043.89,1229.2 1049.45,1249.42 1054.42,1270.33 1058.77,1291.9 920.08,1442.29 915.54,1419.82 910.38,1398.04 904.58,1376.98 898.16,1356.63 891.12,1336.96 883.45,1318.02 875.16,1299.76 866.26,1282.2 856.73,1265.35 846.59,1249.19 835.84,1233.73 824.46,1218.96 812.49,1204.89 799.9,1191.5 786.71,1178.82 "/>
    <polygon class="fil18" points="404.26,1360.27 563.58,1213.15 553.93,1222.47 545.21,1232.82 537.64,1243.99 531.23,1255.95 525.99,1268.74 521.89,1282.32 360.82,1432.32 365.09,1418.17 370.57,1404.86 377.24,1392.38 385.13,1380.76 394.2,1369.98 "/>
    <polygon class="fil19" points="360.82,1432.32 521.89,1282.32 518.96,1296.7 517.2,1311.87 516.6,1327.84 517.4,1342.31 519.77,1357.21 523.75,1372.52 362.76,1526.28 358.62,1510.32 356.16,1494.81 355.33,1479.73 355.94,1463.1 357.78,1447.3 "/>
    <polygon class="fil20" points="362.76,1526.28 523.75,1372.52 529.3,1388.27 536.43,1404.44 545.15,1421.01 555.47,1438.02 567.36,1455.45 408.2,1612.66 395.8,1594.5 385.07,1576.8 375.98,1559.53 368.54,1542.68 "/>
    <polygon class="fil21" points="408.2,1612.66 567.36,1455.45 580.86,1473.28 595.92,1491.53 612.58,1510.2 455.29,1669.7 437.95,1650.24 422.25,1631.23 "/>
    <polygon class="fil22" points="455.29,1669.7 612.58,1510.2 630.82,1529.29 650.65,1548.78 672.07,1568.69 517.27,1730.63 494.96,1709.88 474.29,1689.58 "/>
    <polygon class="fil23" points="517.27,1730.63 672.07,1568.69 695.07,1589.01 719.66,1609.74 566.83,1773.38 541.22,1751.79 "/>
    <polygon class="fil1 str0" points="404.26,1360.27 563.58,1213.15 553.93,1222.47 545.21,1232.82 537.64,1243.99 531.23,1255.95 525.99,1268.74 521.89,1282.32 518.96,1296.7 517.2,1311.87 516.6,1327.84 517.4,1342.31 519.77,1357.21 523.75,1372.52 529.3,1388.27 536.43,1404.44 545.15,1421.01 555.47,1438.02 567.36,1455.45 580.86,1473.28 595.92,1491.53 612.58,1510.2 630.82,1529.29 650.65,1548.78 672.07,1568.69 695.07,1589.01 719.66,1609.74 566.83,1773.38 541.22,1751.79 517.27,1730.63 494.96,1709.88 474.29,1689.58 455.29,1669.7 437.95,1650.24 422.25,1631.23 408.2,1612.66 395.8,1594.5 385.07,1576.8 375.98,1559.53 368.54,1542.68 362.76,1526.28 358.62,1510.32 356.16,1494.81 355.33,1479.73 355.94,1463.1 357.78,1447.3 360.82,1432.32 365.09,1418.17 370.57,1404.86 377.24,1392.38 385.13,1380.76 394.2,1369.98 "/>
    <polygon class="fil24" points="566.83,1773.38 719.66,1609.74 731.59,1619.64 742.82,1628.91 753.33,1637.57 763.13,1645.64 772.24,1653.07 780.65,1659.92 788.36,1666.19 638.4,1832.17 630.36,1825.65 621.61,1818.52 612.13,1810.77 601.91,1802.37 590.96,1793.35 579.27,1783.69 "/>
    <polygon class="fil25" points="638.4,1832.17 788.36,1666.19 795.37,1671.84 645.7,1838.07 "/>
    <polygon class="fil1 str0" points="566.83,1773.38 719.66,1609.74 731.59,1619.64 742.82,1628.91 753.33,1637.57 763.13,1645.64 772.24,1653.07 780.65,1659.92 788.36,1666.19 795.37,1671.84 645.7,1838.07 638.4,1832.17 630.36,1825.65 621.61,1818.52 612.13,1810.77 601.91,1802.37 590.96,1793.35 579.27,1783.69 "/>
    <polygon class="fil26" points="645.7,1838.07 795.37,1671.84 813.29,1687.72 830.53,1703.46 847.1,1719.03 863,1734.44 716.15,1903.28 699.6,1887.22 682.33,1871 664.37,1854.61 "/>
    <polygon class="fil27" points="716.15,1903.28 863,1734.44 878.23,1749.7 892.78,1764.79 906.66,1779.74 919.87,1794.51 775.4,1965.85 761.63,1950.46 747.18,1934.9 732.01,1919.17 "/>
    <polygon class="fil28" points="775.4,1965.85 919.87,1794.51 932.4,1809.15 944.26,1823.6 955.45,1837.91 965.96,1852.04 975.79,1866.02 833.64,2040.34 823.4,2025.78 812.46,2011.06 800.81,1996.15 788.46,1981.1 "/>
    <polygon class="fil29" points="833.64,2040.34 975.79,1866.02 984.94,1879.84 993.41,1893.5 1001.21,1907 1008.43,1920.49 1015.2,1934.16 1021.49,1947.99 881.24,2125.73 874.7,2111.31 867.65,2097.08 860.12,2083.01 852,2068.96 843.17,2054.73 "/>
    <polygon class="fil30" points="881.24,2125.73 1021.49,1947.99 1027.32,1962 1032.68,1976.18 1037.57,1990.53 1042,2005.04 1045.97,2019.73 1049.44,2034.58 910.37,2215.92 906.73,2200.45 902.61,2185.16 898,2170.03 892.89,2155.09 887.31,2140.31 "/>
    <polygon class="fil31" points="910.37,2215.92 1049.44,2034.58 1052.48,2049.61 1055.04,2064.78 1057.14,2080.12 1058.77,2095.65 1059.95,2111.33 1060.64,2127.18 922.03,2312.37 921.3,2295.88 920.08,2279.54 918.38,2263.37 916.2,2247.39 913.53,2231.56 "/>
    <polygon class="fil32" points="922.03,2312.37 1060.64,2127.18 1060.87,2143.18 1060.75,2156.26 1060.4,2169.15 1059.82,2181.87 1058.99,2194.41 1057.93,2206.81 1056.63,2219.03 917.86,2408.05 919.21,2395.32 920.31,2382.42 921.17,2369.34 921.78,2356.1 922.15,2342.66 922.27,2329.06 "/>
    <polygon class="fil33" points="917.86,2408.05 1056.63,2219.03 1055.11,2231.07 1053.35,2242.94 1051.36,2254.65 1049.12,2266.18 1046.67,2277.55 1043.97,2288.74 1041.03,2299.76 1037.86,2310.61 898.3,2503.46 901.6,2492.15 904.66,2480.67 907.47,2469.01 910.03,2457.17 912.36,2445.16 914.43,2432.97 916.27,2420.6 "/>
    <polygon class="fil34" points="898.3,2503.46 1037.86,2310.61 1034.46,2321.29 1030.82,2331.81 1026.95,2342.14 1022.85,2352.32 1018.51,2362.31 1013.94,2372.14 1009.14,2381.81 1004.09,2391.29 863.12,2587.49 868.38,2577.61 873.39,2567.54 878.14,2557.31 882.66,2546.9 886.94,2536.3 890.97,2525.53 894.76,2514.58 "/>
    <polygon class="fil35" points="863.12,2587.49 1004.09,2391.29 998.83,2400.6 993.31,2409.75 987.58,2418.72 981.61,2427.52 839.7,2625.23 845.92,2616.06 851.9,2606.72 857.64,2597.19 "/>
    <polygon class="fil1 str0" points="645.7,1838.07 795.37,1671.84 813.29,1687.72 830.53,1703.46 847.1,1719.03 863,1734.44 878.23,1749.7 892.78,1764.79 906.66,1779.74 919.87,1794.51 932.4,1809.15 944.26,1823.6 955.45,1837.91 965.96,1852.04 975.79,1866.02 984.94,1879.84 993.41,1893.5 1001.21,1907 1008.43,1920.49 1015.2,1934.16 1021.49,1947.99 1027.32,1962 1032.68,1976.18 1037.57,1990.53 1042,2005.04 1045.97,2019.73 1049.44,2034.58 1052.48,2049.61 1055.04,2064.78 1057.14,2080.12 1058.77,2095.65 1059.95,2111.33 1060.64,2127.18 1060.87,2143.18 1060.75,2156.26 1060.4,2169.15 1059.82,2181.87 1058.99,2194.41 1057.93,2206.81 1056.63,2219.03 1055.11,2231.07 1053.35,2242.94 1051.36,2254.65 1049.12,2266.18 1046.67,2277.55 1043.97,2288.74 1041.03,2299.76 1037.86,2310.61 1034.46,2321.29 1030.82,2331.81 1026.95,2342.14 1022.85,2352.32 1018.51,2362.31 1013.94,2372.14 1009.14,2381.81 1004.09,2391.29 998.83,2400.6 993.31,2409.75 987.58,2418.72 981.61,2427.52 839.7,2625.23 845.92,2616.06 851.9,2606.72 857.64,2597.19 863.12,2587.49 868.38,2577.61 873.39,2567.54 878.14,2557.31 882.66,2546.9 886.94,2536.3 890.97,2525.53 894.76,2514.58 898.3,2503.46 901.6,2492.15 904.66,2480.67 907.47,2469.01 910.03,2457.17 912.36,2445.16 914.43,2432.97 916.27,2420.6 917.86,2408.05 919.21,2395.32 920.31,2382.42 921.17,2369.34 921.78,2356.1 922.15,2342.66 922.27,2329.06 922.03,2312.37 921.3,2295.88 920.08,2279.54 918.38,2263.37 916.2,2247.39 913.53,2231.56 910.37,2215.92 906.73,2200.45 902.61,2185.16 898,2170.03 892.89,2155.09 887.31,2140.31 881.24,2125.73 874.7,2111.31 867.65,2097.08 860.12,2083.01 852,2068.96 843.17,2054.73 833.64,2040.34 823.4,2025.78 812.46,2011.06 800.81,1996.15 788.46,1981.1 775.4,1965.85 761.63,1950.46 747.18,1934.9 732.01,1919.17 716.15,1903.28 699.6,1887.22 682.33,1871 664.37,1854.61 "/>
    <polygon class="fil36" points="1182.85,1106.12 1311.02,969.17 1620.83,969.17 1505.58,1106.12 "/>
    <polygon class="fil1 str0" points="1182.85,1106.12 1311.02,969.17 1620.83,969.17 1505.58,1106.12 "/>
    <polygon class="fil37" points="1505.58,1106.12 1620.83,969.17 1620.83,2045.16 1505.58,2226.93 "/>
    <polygon class="fil38" points="1505.58,2226.93 1620.83,2045.16 1620.96,2066.06 1621.29,2086.1 1621.86,2105.31 1622.67,2123.66 1623.68,2141.16 1508.54,2326.94 1507.47,2308.72 1506.63,2289.59 1506.04,2269.59 1505.69,2248.72 "/>
    <polygon class="fil39" points="1508.54,2326.94 1623.68,2141.16 1624.94,2157.82 1626.42,2173.62 1628.13,2188.58 1630.05,2202.7 1632.2,2215.98 1634.58,2228.4 1519.89,2417.82 1517.41,2404.87 1515.16,2391.05 1513.16,2376.34 1511.39,2360.76 1509.85,2344.29 "/>
    <polygon class="fil40" points="1519.89,2417.82 1634.58,2228.4 1637.19,2239.98 1640.01,2250.72 1643.05,2260.61 1646.32,2269.66 1649.8,2277.87 1535.74,2469.34 1532.11,2460.79 1528.71,2451.38 1525.54,2441.07 1522.59,2429.88 "/>
    <polygon class="fil1 str0" points="1505.58,1106.12 1620.83,969.17 1620.83,2045.16 1620.96,2066.06 1621.29,2086.1 1621.86,2105.31 1622.67,2123.66 1623.68,2141.16 1624.94,2157.82 1626.42,2173.62 1628.13,2188.58 1630.05,2202.7 1632.2,2215.98 1634.58,2228.4 1637.19,2239.98 1640.01,2250.72 1643.05,2260.61 1646.32,2269.66 1649.8,2277.87 1535.74,2469.34 1532.11,2460.79 1528.71,2451.38 1525.54,2441.07 1522.59,2429.88 1519.89,2417.82 1517.41,2404.87 1515.16,2391.05 1513.16,2376.34 1511.39,2360.76 1509.85,2344.29 1508.54,2326.94 1507.47,2308.72 1506.63,2289.59 1506.04,2269.59 1505.69,2248.72 1505.58,2226.93 "/>
    <polygon class="fil41" points="1535.74,2469.34 1649.8,2277.87 1657.78,2292.46 1667.08,2305.13 1677.69,2315.87 1689.63,2324.65 1702.88,2331.5 1717.45,2336.39 1606.21,2530.3 1591.03,2525.21 1577.22,2518.08 1564.78,2508.93 1553.73,2497.74 1544.06,2484.55 "/>
    <polygon class="fil42" points="1606.21,2530.3 1717.45,2336.39 1733.38,2339.33 1750.64,2340.3 1768.14,2339.32 1784.27,2336.39 1799.05,2331.48 1691.2,2525.19 1675.81,2530.3 1659,2533.36 1640.77,2534.39 1622.8,2533.37 "/>
    <polygon class="fil43" points="1691.2,2525.19 1799.05,2331.48 1812.47,2324.6 1824.55,2315.78 1835.32,2304.99 1844.75,2292.22 1852.85,2277.51 1747.25,2468.97 1738.79,2484.3 1728.98,2497.59 1717.78,2508.84 1705.19,2518.03 "/>
    <polygon class="fil1 str0" points="1535.74,2469.34 1649.8,2277.87 1657.78,2292.46 1667.08,2305.13 1677.69,2315.87 1689.63,2324.65 1702.88,2331.5 1717.45,2336.39 1733.38,2339.33 1750.64,2340.3 1768.14,2339.32 1784.27,2336.39 1799.05,2331.48 1812.47,2324.6 1824.55,2315.78 1835.32,2304.99 1844.75,2292.22 1852.85,2277.51 1747.25,2468.97 1738.79,2484.3 1728.98,2497.59 1717.78,2508.84 1705.19,2518.03 1691.2,2525.19 1675.81,2530.3 1659,2533.36 1640.77,2534.39 1622.8,2533.37 1606.21,2530.3 1591.03,2525.21 1577.22,2518.08 1564.78,2508.93 1553.73,2497.74 1544.06,2484.55 "/>
    <polygon class="fil44" points="1778.15,1106.12 1882.51,969.17 2192.33,969.17 2100.86,1106.12 "/>
    <polygon class="fil1 str0" points="1778.15,1106.12 1882.51,969.17 2192.33,969.17 2100.86,1106.12 "/>
    <polygon class="fil45" points="2100.86,1106.12 2192.33,969.17 2192.33,2043.06 2100.86,2224.75 "/>
    <polygon class="fil46" points="2100.86,2224.75 2192.33,2043.06 2192.22,2060.74 2191.9,2078.14 2191.38,2095.22 2190.65,2112.02 2189.7,2128.54 2098.13,2313.79 2099.11,2296.59 2099.88,2279.09 2100.42,2261.28 2100.75,2243.17 "/>
    <polygon class="fil47" points="2098.13,2313.79 2189.7,2128.54 2188.54,2144.76 2187.16,2160.69 2185.59,2176.31 2183.8,2191.66 2181.79,2206.7 2179.59,2221.46 2087.59,2410.59 2089.9,2395.21 2091.98,2379.54 2093.85,2363.56 2095.49,2347.28 2096.92,2330.69 "/>
    <polygon class="fil48" points="2087.59,2410.59 2179.59,2221.46 2177.16,2235.93 2174.53,2250.1 2171.68,2263.97 2168.63,2277.57 2165.36,2290.85 2161.9,2303.86 2069.17,2496.42 2072.79,2482.87 2076.19,2469.03 2079.36,2454.87 2082.32,2440.42 2085.06,2425.65 "/>
    <polygon class="fil49" points="2069.17,2496.42 2161.9,2303.86 2158.22,2316.57 2154.32,2328.99 2150.21,2341.1 2145.89,2352.95 2141.37,2364.49 2136.64,2375.74 2131.69,2386.69 2037.7,2582.71 2042.86,2571.29 2047.79,2559.58 2052.5,2547.55 2057,2535.23 2061.28,2522.6 2065.34,2509.66 "/>
    <polygon class="fil1 str0" points="2100.86,1106.12 2192.33,969.17 2192.33,2043.06 2192.22,2060.74 2191.9,2078.14 2191.38,2095.22 2190.65,2112.02 2189.7,2128.54 2188.54,2144.76 2187.16,2160.69 2185.59,2176.31 2183.8,2191.66 2181.79,2206.7 2179.59,2221.46 2177.16,2235.93 2174.53,2250.1 2171.68,2263.97 2168.63,2277.57 2165.36,2290.85 2161.9,2303.86 2158.22,2316.57 2154.32,2328.99 2150.21,2341.1 2145.89,2352.95 2141.37,2364.49 2136.64,2375.74 2131.69,2386.69 2037.7,2582.71 2042.86,2571.29 2047.79,2559.58 2052.5,2547.55 2057,2535.23 2061.28,2522.6 2065.34,2509.66 2069.17,2496.42 2072.79,2482.87 2076.19,2469.03 2079.36,2454.87 2082.32,2440.42 2085.06,2425.65 2087.59,2410.59 2089.9,2395.21 2091.98,2379.54 2093.85,2363.56 2095.49,2347.28 2096.92,2330.69 2098.13,2313.79 2099.11,2296.59 2099.88,2279.09 2100.42,2261.28 2100.75,2243.17 2100.86,2224.75 "/>
    <polygon class="fil50" points="2450.85,1106.12 2528.31,969.17 2890.11,969.17 2827.72,1106.12 "/>
    <polygon class="fil51" points="2827.72,1106.12 2890.11,969.17 2905.14,969.3 2919.92,969.69 2934.46,970.35 2948.75,971.26 2962.82,972.42 2976.63,973.85 2917.85,1111 2903.46,1109.51 2888.81,1108.29 2873.92,1107.34 2858.77,1106.67 2843.38,1106.25 "/>
    <polygon class="fil52" points="2917.85,1111 2976.63,973.85 2990.22,975.55 3003.53,977.49 3016.63,979.71 3029.49,982.17 3042.1,984.9 3054.47,987.89 3066.6,991.14 3011.57,1129 2998.93,1125.62 2986.05,1122.51 2972.91,1119.66 2959.52,1117.09 2945.88,1114.78 2932,1112.76 "/>
    <polygon class="fil53" points="3011.57,1129 3066.6,991.14 3078.49,994.65 3090.13,998.42 3101.54,1002.45 3112.7,1006.75 3123.62,1011.3 3134.31,1016.12 3144.74,1021.19 3154.95,1026.52 3103.6,1165.86 3092.97,1160.31 3082.1,1155.03 3070.97,1150 3059.59,1145.26 3047.96,1140.79 3036.08,1136.59 3023.96,1132.67 "/>
    <polygon class="fil54" points="3103.6,1165.86 3154.95,1026.52 3164.91,1032.12 3174.61,1037.98 3184.09,1044.1 3193.34,1050.47 3202.32,1057.11 3211.07,1064.02 3219.58,1071.19 3227.85,1078.6 3179.54,1220.11 3170.92,1212.39 3162.07,1204.92 3152.94,1197.73 3143.58,1190.81 3133.96,1184.17 3124.09,1177.8 3113.96,1171.69 "/>
    <polygon class="fil55" points="3179.54,1220.11 3227.85,1078.6 3235.88,1086.29 3243.67,1094.25 3251.21,1102.46 3258.51,1110.93 3265.59,1119.67 3272.43,1128.67 3279.05,1137.94 3285.42,1147.47 3239.51,1291.86 3232.86,1281.92 3225.98,1272.27 3218.85,1262.88 3211.48,1253.78 3203.87,1244.96 3196.01,1236.41 3187.91,1228.12 "/>
    <polygon class="fil56" points="3239.51,1291.86 3285.42,1147.47 3291.57,1157.28 3297.48,1167.34 3303.16,1177.68 3308.61,1188.29 3313.81,1199.15 3318.81,1210.28 3323.55,1221.66 3328.06,1233.34 3283.92,1381.29 3279.23,1369.14 3274.28,1357.28 3269.09,1345.67 3263.66,1334.36 3257.98,1323.32 3252.07,1312.55 3245.91,1302.07 "/>
    <polygon class="fil57" points="3283.92,1381.29 3328.06,1233.34 3332.35,1245.27 3336.41,1257.46 3340.23,1269.92 3343.8,1282.64 3347.17,1295.63 3350.29,1308.89 3353.18,1322.41 3310.1,1474.09 3307.08,1460 3303.83,1446.19 3300.33,1432.66 3296.59,1419.4 3292.61,1406.42 3288.39,1393.71 "/>
    <polygon class="fil58" points="3310.1,1474.09 3353.18,1322.41 3355.85,1336.2 3358.27,1350.26 3360.47,1364.58 3362.44,1379.17 3364.17,1394.01 3365.69,1409.13 3323.11,1564.41 3321.54,1548.67 3319.73,1533.2 3317.68,1518 3315.39,1503.09 3312.86,1488.45 "/>
    <polygon class="fil59" points="3323.11,1564.41 3365.69,1409.13 3366.94,1424.52 3367.99,1440.17 3368.8,1456.08 3369.37,1472.26 3369.72,1488.71 3369.83,1505.43 3327.44,1664.71 3327.32,1647.31 3326.95,1630.17 3326.35,1613.32 3325.51,1596.74 3324.43,1580.44 "/>
    <polygon class="fil60" points="3327.44,1664.71 3369.83,1505.43 3369.71,1521.11 3369.32,1536.58 3368.67,1551.84 3367.76,1566.88 3366.59,1581.7 3365.17,1596.3 3322.57,1759.39 3324.05,1744.17 3325.27,1728.73 3326.22,1713.06 3326.89,1697.17 3327.31,1681.05 "/>
    <polygon class="fil61" points="3322.57,1759.39 3365.17,1596.3 3363.48,1610.71 3361.54,1624.88 3359.33,1638.83 3356.86,1652.57 3354.13,1666.1 3351.16,1679.41 3307.99,1845.96 3311.09,1832.09 3313.92,1818 3316.49,1803.68 3318.79,1789.15 3320.81,1774.38 "/>
    <polygon class="fil62" points="3307.99,1845.96 3351.16,1679.41 3347.91,1692.51 3304.61,1859.59 "/>
    <polygon class="fil1 str0" points="2450.85,1106.12 2528.31,969.17 2890.11,969.17 2905.14,969.3 2919.92,969.69 2934.46,970.35 2948.75,971.26 2962.82,972.42 2976.63,973.85 2990.22,975.55 3003.53,977.49 3016.63,979.71 3029.49,982.17 3042.1,984.9 3054.47,987.89 3066.6,991.14 3078.49,994.65 3090.13,998.42 3101.54,1002.45 3112.7,1006.75 3123.62,1011.3 3134.31,1016.12 3144.74,1021.19 3154.95,1026.52 3164.91,1032.12 3174.61,1037.98 3184.09,1044.1 3193.34,1050.47 3202.32,1057.11 3211.07,1064.02 3219.58,1071.19 3227.85,1078.6 3235.88,1086.29 3243.67,1094.25 3251.21,1102.46 3258.51,1110.93 3265.59,1119.67 3272.43,1128.67 3279.05,1137.94 3285.42,1147.47 3291.57,1157.28 3297.48,1167.34 3303.16,1177.68 3308.61,1188.29 3313.81,1199.15 3318.81,1210.28 3323.55,1221.66 3328.06,1233.34 3332.35,1245.27 3336.41,1257.46 3340.23,1269.92 3343.8,1282.64 3347.17,1295.63 3350.29,1308.89 3353.18,1322.41 3355.85,1336.2 3358.27,1350.26 3360.47,1364.58 3362.44,1379.17 3364.17,1394.01 3365.69,1409.13 3366.94,1424.52 3367.99,1440.17 3368.8,1456.08 3369.37,1472.26 3369.72,1488.71 3369.83,1505.43 3369.71,1521.11 3369.32,1536.58 3368.67,1551.84 3367.76,1566.88 3366.59,1581.7 3365.17,1596.3 3363.48,1610.71 3361.54,1624.88 3359.33,1638.83 3356.86,1652.57 3354.13,1666.1 3351.16,1679.41 3347.91,1692.51 3304.61,1859.59 3307.99,1845.96 3311.09,1832.09 3313.92,1818 3316.49,1803.68 3318.79,1789.15 3320.81,1774.38 3322.57,1759.39 3324.05,1744.17 3325.27,1728.73 3326.22,1713.06 3326.89,1697.17 3327.31,1681.05 3327.44,1664.71 3327.32,1647.31 3326.95,1630.17 3326.35,1613.32 3325.51,1596.74 3324.43,1580.44 3323.11,1564.41 3321.54,1548.67 3319.73,1533.2 3317.68,1518 3315.39,1503.09 3312.86,1488.45 3310.1,1474.09 3307.08,1460 3303.83,1446.19 3300.33,1432.66 3296.59,1419.4 3292.61,1406.42 3288.39,1393.71 3283.92,1381.29 3279.23,1369.14 3274.28,1357.28 3269.09,1345.67 3263.66,1334.36 3257.98,1323.32 3252.07,1312.55 3245.91,1302.07 3239.51,1291.86 3232.86,1281.92 3225.98,1272.27 3218.85,1262.88 3211.48,1253.78 3203.87,1244.96 3196.01,1236.41 3187.91,1228.12 3179.54,1220.11 3170.92,1212.39 3162.07,1204.92 3152.94,1197.73 3143.58,1190.81 3133.96,1184.17 3124.09,1177.8 3113.96,1171.69 3103.6,1165.86 3092.97,1160.31 3082.1,1155.03 3070.97,1150 3059.59,1145.26 3047.96,1140.79 3036.08,1136.59 3023.96,1132.67 3011.57,1129 2998.93,1125.62 2986.05,1122.51 2972.91,1119.66 2959.52,1117.09 2945.88,1114.78 2932,1112.76 2917.85,1111 2903.46,1109.51 2888.81,1108.29 2873.92,1107.34 2858.77,1106.67 2843.38,1106.25 2827.72,1106.12 "/>
    <polygon class="fil63" points="2773.57,2224.75 2838.12,2043.06 2838.12,2568.48 2773.57,2772.07 "/>
    <polygon class="fil1 str0" points="2773.57,2224.75 2838.12,2043.06 2838.12,2568.48 2773.57,2772.07 "/>
    <polygon class="fil64" points="2773.57,1352.53 2838.12,1205.72 2838.12,1796.04 2773.57,1967.44 "/>
    <polygon class="fil1 str0" points="2773.57,1352.53 2838.12,1205.72 2838.12,1796.04 2773.57,1967.44 "/>
    <polygon class="fil65" points="2773.57,1967.44 2838.12,1796.04 2850.34,1796.04 2862.7,1795.73 2874.7,1794.85 2886.29,1793.35 2897.5,1791.27 2908.33,1788.59 2918.78,1785.32 2928.85,1781.45 2868.07,1952.24 2857.59,1956.27 2846.71,1959.69 2835.42,1962.48 2823.75,1964.64 2811.67,1966.2 2799.18,1967.13 2786.3,1967.44 "/>
    <polygon class="fil66" points="2868.07,1952.24 2928.85,1781.45 2938.53,1776.98 2947.81,1771.93 2956.72,1766.28 2965.25,1760.04 2973.38,1753.21 2981.14,1745.78 2988.52,1737.77 2995.51,1729.18 2937.51,1897.79 2930.23,1906.75 2922.54,1915.09 2914.47,1922.83 2906,1929.95 2897.12,1936.44 2887.83,1942.32 2878.15,1947.59 "/>
    <polygon class="fil67" points="2937.51,1897.79 2995.51,1729.18 3002.09,1719.98 2944.38,1888.21 "/>
    <polygon class="fil1 str0" points="2773.57,1967.44 2838.12,1796.04 2850.34,1796.04 2862.7,1795.73 2874.7,1794.85 2886.29,1793.35 2897.5,1791.27 2908.33,1788.59 2918.78,1785.32 2928.85,1781.45 2938.53,1776.98 2947.81,1771.93 2956.72,1766.28 2965.25,1760.04 2973.38,1753.21 2981.14,1745.78 2988.52,1737.77 2995.51,1729.18 3002.09,1719.98 2944.38,1888.21 2937.51,1897.79 2930.23,1906.75 2922.54,1915.09 2914.47,1922.83 2906,1929.95 2897.12,1936.44 2887.83,1942.32 2878.15,1947.59 2868.07,1952.24 2857.59,1956.27 2846.71,1959.69 2835.42,1962.48 2823.75,1964.64 2811.67,1966.2 2799.18,1967.13 2786.3,1967.44 "/>
    <polygon class="fil68" points="2944.38,1888.21 3002.09,1719.98 3008.37,1710.15 3014.24,1699.78 3019.7,1688.83 3024.75,1677.34 3029.37,1665.29 2972.8,1831.24 2967.97,1843.8 2962.71,1855.77 2957.03,1867.17 2950.91,1877.98 "/>
    <polygon class="fil1 str0" points="2944.38,1888.21 3002.09,1719.98 3008.37,1710.15 3014.24,1699.78 3019.7,1688.83 3024.75,1677.34 3029.37,1665.29 2972.8,1831.24 2967.97,1843.8 2962.71,1855.77 2957.03,1867.17 2950.91,1877.98 "/>
    <polygon class="fil69" points="3608,1106.12 3639.18,969.17 4024.35,969.17 4009.22,1106.12 "/>
    <polygon class="fil70" points="4009.22,1106.12 4024.35,969.17 4040,969.28 4055.41,969.62 4070.56,970.17 4085.5,970.94 4100.19,971.94 4114.64,973.15 4103.27,1110.26 4088.22,1109 4072.92,1107.97 4057.37,1107.16 4041.57,1106.59 4025.53,1106.23 "/>
    <polygon class="fil71" points="4103.27,1110.26 4114.64,973.15 4128.84,974.59 4142.82,976.25 4156.54,978.12 4170.03,980.23 4183.29,982.56 4196.3,985.1 4209.07,987.86 4201.63,1125.59 4188.33,1122.71 4174.78,1120.06 4160.98,1117.63 4146.92,1115.45 4132.63,1113.49 4118.07,1111.76 "/>
    <polygon class="fil72" points="4201.63,1125.59 4209.07,987.86 4221.59,990.84 4233.88,994.05 4245.94,997.48 4257.75,1001.13 4269.32,1005 4280.66,1009.1 4291.74,1013.42 4287.75,1152.22 4276.21,1147.71 4264.4,1143.44 4252.35,1139.41 4240.04,1135.61 4227.5,1132.04 4214.69,1128.7 "/>
    <polygon class="fil73" points="4287.75,1152.22 4291.74,1013.42 4302.59,1017.96 4313.2,1022.72 4323.56,1027.7 4333.69,1032.91 4343.58,1038.34 4353.22,1044 4362.63,1049.85 4371.8,1055.95 4371.16,1196.52 4361.6,1190.17 4351.8,1184.06 4341.76,1178.17 4331.46,1172.51 4320.9,1167.09 4310.11,1161.89 4299.06,1156.94 "/>
    <polygon class="fil74" points="4371.16,1196.52 4371.8,1055.95 4380.71,1062.27 4389.4,1068.81 4397.85,1075.57 4406.04,1082.56 4414,1089.76 4421.69,1097.18 4429.14,1104.79 4436.32,1112.64 4438.37,1255.56 4430.88,1247.4 4423.12,1239.46 4415.1,1231.73 4406.82,1224.23 4398.29,1216.96 4389.48,1209.91 4380.44,1203.1 "/>
    <polygon class="fil75" points="4438.37,1255.56 4436.32,1112.64 4443.27,1120.69 4449.96,1128.94 4456.38,1137.4 4462.56,1146.08 4468.49,1154.97 4474.17,1164.07 4479.59,1173.37 4484.75,1182.9 4489.67,1192.63 4493.93,1338.89 4488.8,1328.76 4483.43,1318.84 4477.78,1309.14 4471.87,1299.66 4465.69,1290.41 4459.26,1281.36 4452.57,1272.55 4445.6,1263.95 "/>
    <polygon class="fil76" points="4493.93,1338.89 4489.67,1192.63 4494.32,1202.56 4498.74,1212.71 4502.9,1223.08 4506.81,1233.66 4510.46,1244.43 4513.86,1255.43 4517.01,1266.63 4519.89,1278.04 4525.42,1427.86 4522.41,1415.98 4519.12,1404.31 4515.59,1392.85 4511.78,1381.63 4507.71,1370.61 4503.38,1359.81 4498.78,1349.24 "/>
    <polygon class="fil77" points="4525.42,1427.86 4519.89,1278.04 4522.54,1289.67 4524.93,1301.51 4527.08,1313.55 4528.96,1325.81 4530.59,1338.27 4531.98,1350.95 4533.12,1363.84 4539.19,1517.24 4538.02,1503.82 4536.57,1490.6 4534.86,1477.61 4532.9,1464.85 4530.67,1452.3 4528.18,1439.98 "/>
    <polygon class="fil78" points="4539.19,1517.24 4533.12,1363.84 4534,1376.94 4534.62,1390.26 4540.77,1544.74 4540.11,1530.89 "/>
    <polygon class="fil1 str0" points="3608,1106.12 3639.18,969.17 4024.35,969.17 4040,969.28 4055.41,969.62 4070.56,970.17 4085.5,970.94 4100.19,971.94 4114.64,973.15 4128.84,974.59 4142.82,976.25 4156.54,978.12 4170.03,980.23 4183.29,982.56 4196.3,985.1 4209.07,987.86 4221.59,990.84 4233.88,994.05 4245.94,997.48 4257.75,1001.13 4269.32,1005 4280.66,1009.1 4291.74,1013.42 4302.59,1017.96 4313.2,1022.72 4323.56,1027.7 4333.69,1032.91 4343.58,1038.34 4353.22,1044 4362.63,1049.85 4371.8,1055.95 4380.71,1062.27 4389.4,1068.81 4397.85,1075.57 4406.04,1082.56 4414,1089.76 4421.69,1097.18 4429.14,1104.79 4436.32,1112.64 4443.27,1120.69 4449.96,1128.94 4456.38,1137.4 4462.56,1146.08 4468.49,1154.97 4474.17,1164.07 4479.59,1173.37 4484.75,1182.9 4489.67,1192.63 4494.32,1202.56 4498.74,1212.71 4502.9,1223.08 4506.81,1233.66 4510.46,1244.43 4513.86,1255.43 4517.01,1266.63 4519.89,1278.04 4522.54,1289.67 4524.93,1301.51 4527.08,1313.55 4528.96,1325.81 4530.59,1338.27 4531.98,1350.95 4533.12,1363.84 4534,1376.94 4534.62,1390.26 4540.77,1544.74 4540.11,1530.89 4539.19,1517.24 4538.02,1503.82 4536.57,1490.6 4534.86,1477.61 4532.9,1464.85 4530.67,1452.3 4528.18,1439.98 4525.42,1427.86 4522.41,1415.98 4519.12,1404.31 4515.59,1392.85 4511.78,1381.63 4507.71,1370.61 4503.38,1359.81 4498.78,1349.24 4493.93,1338.89 4488.8,1328.76 4483.43,1318.84 4477.78,1309.14 4471.87,1299.66 4465.69,1290.41 4459.26,1281.36 4452.57,1272.55 4445.6,1263.95 4438.37,1255.56 4430.88,1247.4 4423.12,1239.46 4415.1,1231.73 4406.82,1224.23 4398.29,1216.96 4389.48,1209.91 4380.44,1203.1 4371.16,1196.52 4361.6,1190.17 4351.8,1184.06 4341.76,1178.17 4331.46,1172.51 4320.9,1167.09 4310.11,1161.89 4299.06,1156.94 4287.75,1152.22 4276.21,1147.71 4264.4,1143.44 4252.35,1139.41 4240.04,1135.61 4227.5,1132.04 4214.69,1128.7 4201.63,1125.59 4188.33,1122.71 4174.78,1120.06 4160.98,1117.63 4146.92,1115.45 4132.63,1113.49 4118.07,1111.76 4103.27,1110.26 4088.22,1109 4072.92,1107.97 4057.37,1107.16 4041.57,1106.59 4025.53,1106.23 4009.22,1106.12 "/>
    <polygon class="fil79" points="4270.89,1993.6 4275.55,1821.16 4564.43,2568.48 4571.81,2772.07 "/>
    <polygon class="fil1 str0" points="4270.89,1993.6 4275.55,1821.16 4564.43,2568.48 4571.81,2772.07 "/>
    <polygon class="fil80" points="3924.19,1987.08 3942.72,1814.89 3942.72,2568.48 3924.19,2772.07 "/>
    <polygon class="fil1 str0" points="3924.19,1987.08 3942.72,1814.89 3942.72,2568.48 3924.19,2772.07 "/>
    <polygon class="fil81" points="3924.19,1819.17 3942.72,1653.69 3944.36,1653.71 3946.18,1653.76 3948.16,1653.84 3950.3,1653.95 3952.61,1654.1 3955.07,1654.28 3957.71,1654.49 3960.51,1654.74 3942.73,1820.27 3939.82,1820.01 3937.07,1819.78 3934.5,1819.59 3932.09,1819.44 3929.86,1819.32 3927.8,1819.24 3925.91,1819.19 "/>
    <polygon class="fil1 str0" points="3924.19,1819.17 3942.72,1653.69 3944.36,1653.71 3946.18,1653.76 3948.16,1653.84 3950.3,1653.95 3952.61,1654.1 3955.07,1654.28 3957.71,1654.49 3960.51,1654.74 3942.73,1820.27 3939.82,1820.01 3937.07,1819.78 3934.5,1819.59 3932.09,1819.44 3929.86,1819.32 3927.8,1819.24 3925.91,1819.19 "/>
    <polygon class="fil82" points="3942.73,1820.27 3960.51,1654.74 3963.42,1654.99 3966.13,1655.2 3968.66,1655.38 3970.98,1655.53 3973.1,1655.64 3975.03,1655.72 3976.76,1655.77 3978.3,1655.79 3992.94,1655.56 4007.15,1654.85 4020.95,1653.69 4034.3,1652.06 4047.26,1649.95 4033.08,1815.27 4019.6,1817.47 4005.67,1819.17 3991.31,1820.38 3976.5,1821.11 3961.26,1821.34 3959.66,1821.32 3957.85,1821.27 3955.84,1821.19 3953.62,1821.08 3951.21,1820.93 3948.58,1820.74 3945.75,1820.52 "/>
    <polygon class="fil83" points="4033.08,1815.27 4047.26,1649.95 4059.78,1647.38 4071.89,1644.34 4083.58,1640.84 4094.86,1636.85 4105.71,1632.4 4116.13,1627.47 4126.18,1622.08 4135.79,1616.21 4125.31,1780.13 4115.3,1786.24 4104.85,1791.86 4093.97,1796.98 4082.67,1801.62 4070.92,1805.77 4058.74,1809.42 4046.13,1812.59 "/>
    <polygon class="fil84" points="4125.31,1780.13 4135.79,1616.21 4144.99,1609.89 4153.79,1603.07 4162.17,1595.78 4152.78,1758.85 4144.06,1766.43 4134.9,1773.53 "/>
    <polygon class="fil1 str0" points="3942.73,1820.27 3960.51,1654.74 3963.42,1654.99 3966.13,1655.2 3968.66,1655.38 3970.98,1655.53 3973.1,1655.64 3975.03,1655.72 3976.76,1655.77 3978.3,1655.79 3992.94,1655.56 4007.15,1654.85 4020.95,1653.69 4034.3,1652.06 4047.26,1649.95 4059.78,1647.38 4071.89,1644.34 4083.58,1640.84 4094.86,1636.85 4105.71,1632.4 4116.13,1627.47 4126.18,1622.08 4135.79,1616.21 4144.99,1609.89 4153.79,1603.07 4162.17,1595.78 4152.78,1758.85 4144.06,1766.43 4134.9,1773.53 4125.31,1780.13 4115.3,1786.24 4104.85,1791.86 4093.97,1796.98 4082.67,1801.62 4070.92,1805.77 4058.74,1809.42 4046.13,1812.59 4033.08,1815.27 4019.6,1817.47 4005.67,1819.17 3991.31,1820.38 3976.5,1821.11 3961.26,1821.34 3959.66,1821.32 3957.85,1821.27 3955.84,1821.19 3953.62,1821.08 3951.21,1820.93 3948.58,1820.74 3945.75,1820.52 "/>
    <polygon class="fil85" points="4152.78,1758.85 4162.17,1595.78 4170.08,1588.14 4177.49,1580.1 4184.37,1571.68 4190.76,1562.89 4196.62,1553.7 4201.97,1544.14 4206.8,1534.2 4211.13,1523.87 4203.79,1683.92 4199.29,1694.69 4194.25,1705.05 4188.67,1715 4182.56,1724.58 4175.91,1733.74 4168.74,1742.5 4161.03,1750.87 "/>
    <polygon class="fil86" points="4203.79,1683.92 4211.13,1523.87 4214.96,1513.16 4218.26,1502.08 4221.05,1490.6 4223.35,1478.76 4225.12,1466.54 4226.39,1453.93 4227.15,1440.97 4220.48,1597.57 4219.68,1611.09 4218.36,1624.21 4216.51,1636.95 4214.12,1649.28 4211.21,1661.23 4207.77,1672.78 "/>
    <polygon class="fil1 str0" points="4152.78,1758.85 4162.17,1595.78 4170.08,1588.14 4177.49,1580.1 4184.37,1571.68 4190.76,1562.89 4196.62,1553.7 4201.97,1544.14 4206.8,1534.2 4211.13,1523.87 4214.96,1513.16 4218.26,1502.08 4221.05,1490.6 4223.35,1478.76 4225.12,1466.54 4226.39,1453.93 4227.15,1440.97 4220.48,1597.57 4219.68,1611.09 4218.36,1624.21 4216.51,1636.95 4214.12,1649.28 4211.21,1661.23 4207.77,1672.78 4203.79,1683.92 4199.29,1694.69 4194.25,1705.05 4188.67,1715 4182.56,1724.58 4175.91,1733.74 4168.74,1742.5 4161.03,1750.87 "/>
    <polygon class="fil87" points="3924.19,1354.71 3942.72,1207.82 3942.72,1653.69 3924.19,1819.17 "/>
    <polygon class="fil1 str0" points="3924.19,1354.71 3942.72,1207.82 3942.72,1653.69 3924.19,1819.17 "/>
    <polygon class="fil88" points="5162.74,2248.75 5131.73,2066.08 5357.8,2066.08 5398.25,2248.75 "/>
    <polygon class="fil1 str0" points="5162.74,2248.75 5131.73,2066.08 5357.8,2066.08 5398.25,2248.75 "/>
    <polygon class="fil89" points="5398.25,2248.75 5357.8,2066.08 5284.2,1561.94 5321.56,1723.59 "/>
    <polygon class="fil1 str0" points="5398.25,2248.75 5357.8,2066.08 5284.2,1561.94 5321.56,1723.59 "/>
    <polygon class="fil90" points="5321.56,1723.59 5284.2,1561.94 5283.15,1554.16 5282.12,1546.13 5281.09,1537.87 5280.07,1529.36 5279.05,1520.59 5278.04,1511.58 5277.04,1502.33 5276.04,1492.82 5275.04,1483.06 5274.04,1473.06 5310.99,1631 5312.03,1641.42 5313.07,1651.58 5314.11,1661.49 5315.15,1671.14 5316.21,1680.52 5317.27,1689.65 5318.34,1698.52 5319.4,1707.12 5320.47,1715.48 "/>
    <polygon class="fil91" points="5310.99,1631 5274.04,1473.06 5273.06,1462.79 5272.07,1452.28 5271.08,1441.53 5270.1,1430.51 5269.12,1419.26 5268.14,1407.73 5267.18,1396.01 5266.22,1384.11 5302.85,1538.35 5303.83,1550.74 5304.84,1562.96 5305.87,1574.95 5306.88,1586.69 5307.91,1598.16 5308.94,1609.37 5309.97,1620.31 "/>
    <polygon class="fil92" points="5302.85,1538.35 5266.22,1384.11 5265.3,1372.06 5264.41,1359.84 5263.54,1347.46 5262.7,1334.9 5261.88,1322.18 5261.08,1309.3 5260.32,1296.25 5296.68,1446.82 5297.48,1460.42 5298.31,1473.84 5299.17,1487.09 5300.05,1500.17 5300.95,1513.07 5301.89,1525.8 "/>
    <polygon class="fil93" points="5296.68,1446.82 5260.32,1296.25 5259.56,1283.01 5258.84,1269.64 5258.14,1256.08 5257.47,1242.35 5256.81,1228.44 5256.19,1214.39 5255.59,1200.13 5291.76,1346.71 5292.38,1361.56 5293.04,1376.2 5293.71,1390.68 5294.42,1404.98 5295.14,1419.11 5295.9,1433.05 "/>
    <polygon class="fil1 str0" points="5321.56,1723.59 5284.2,1561.94 5283.15,1554.16 5282.12,1546.13 5281.09,1537.87 5280.07,1529.36 5279.05,1520.59 5278.04,1511.58 5277.04,1502.33 5276.04,1492.82 5275.04,1483.06 5274.04,1473.06 5273.06,1462.79 5272.07,1452.28 5271.08,1441.53 5270.1,1430.51 5269.12,1419.26 5268.14,1407.73 5267.18,1396.01 5266.22,1384.11 5265.3,1372.06 5264.41,1359.84 5263.54,1347.46 5262.7,1334.9 5261.88,1322.18 5261.08,1309.3 5260.32,1296.25 5259.56,1283.01 5258.84,1269.64 5258.14,1256.08 5257.47,1242.35 5256.81,1228.44 5256.19,1214.39 5255.59,1200.13 5291.76,1346.71 5292.38,1361.56 5293.04,1376.2 5293.71,1390.68 5294.42,1404.98 5295.14,1419.11 5295.9,1433.05 5296.68,1446.82 5297.48,1460.42 5298.31,1473.84 5299.17,1487.09 5300.05,1500.17 5300.95,1513.07 5301.89,1525.8 5302.85,1538.35 5303.83,1550.74 5304.84,1562.96 5305.87,1574.95 5306.88,1586.69 5307.91,1598.16 5308.94,1609.37 5309.97,1620.31 5310.99,1631 5312.03,1641.42 5313.07,1651.58 5314.11,1661.49 5315.15,1671.14 5316.21,1680.52 5317.27,1689.65 5318.34,1698.52 5319.4,1707.12 5320.47,1715.48 "/>
    <polygon class="fil94" points="4736.81,2772.07 4722.83,2568.48 5085.68,969.17 5114.78,1106.12 "/>
    <polygon class="fil1 str0" points="4736.81,2772.07 4722.83,2568.48 5085.68,969.17 5114.78,1106.12 "/>
    <polygon class="fil95" points="5114.78,1106.12 5085.68,969.17 5419.91,969.17 5462.94,1106.12 "/>
    <polygon class="fil1 str0" points="5114.78,1106.12 5085.68,969.17 5419.91,969.17 5462.94,1106.12 "/>
    <polygon class="fil96" points="5491.65,2772.07 5447.47,2568.48 5403.51,2308.9 5445.85,2501.68 "/>
    <polygon class="fil1 str0" points="5491.65,2772.07 5447.47,2568.48 5403.51,2308.9 5445.85,2501.68 "/>
    <polygon class="fil97" points="6087.3,2772.07 6019.31,2568.48 6019.31,969.17 6087.3,1106.12 "/>
    <polygon class="fil1 str0" points="6087.3,2772.07 6019.31,2568.48 6019.31,969.17 6087.3,1106.12 "/>
    <polygon class="fil98" points="6087.3,1106.12 6019.31,969.17 6369.24,969.17 6451.82,1106.12 "/>
    <polygon class="fil1 str0" points="6087.3,1106.12 6019.31,969.17 6369.24,969.17 6451.82,1106.12 "/>
    <polygon class="fil99" points="6693.14,2252.73 6600.9,2069.93 6616.26,2070.62 6709.13,2253.46 "/>
    <polygon class="fil1 str0" points="6693.14,2252.73 6600.9,2069.93 6616.26,2070.62 6709.13,2253.46 "/>
    <polygon class="fil100" points="6709.13,2253.46 6616.26,2070.62 6618.08,2058.07 6619.92,2045.65 6621.75,2033.37 6623.59,2021.24 6625.42,2009.23 6627.27,1997.37 6629.11,1985.65 6722.51,2164.96 6720.6,2177.16 6718.68,2189.52 6716.76,2202.02 6714.85,2214.67 6712.95,2227.45 6711.03,2240.39 "/>
    <polygon class="fil101" points="6722.51,2164.96 6629.11,1985.65 6630.95,1974.06 6632.8,1962.63 6634.66,1951.31 6636.52,1940.15 6638.38,1929.12 6640.26,1918.23 6642.13,1907.48 6644.01,1896.87 6738.04,2072.48 6736.08,2083.53 6734.13,2094.73 6732.17,2106.07 6730.23,2117.55 6728.28,2129.19 6726.36,2140.96 6724.44,2152.88 "/>
    <polygon class="fil102" points="6738.04,2072.48 6644.01,1896.87 6645.91,1886.4 6647.81,1876.1 6649.71,1865.95 6651.63,1855.97 6653.56,1846.18 6655.48,1836.54 6657.41,1827.06 6659.34,1817.78 6661.26,1808.65 6756,1980.57 6754.01,1990.09 6751.99,1999.76 6749.99,2009.63 6747.98,2019.67 6745.98,2029.87 6743.99,2040.26 6742,2050.83 6740.02,2061.57 "/>
    <polygon class="fil103" points="6756,1980.57 6661.26,1808.65 6663.2,1799.68 6665.13,1790.89 6667.05,1782.27 6668.97,1773.8 6670.89,1765.5 6672.81,1757.39 6674.71,1749.42 6676.61,1741.61 6772,1910.75 6770.02,1918.88 6768.03,1927.18 6766.04,1935.65 6764.04,1944.28 6762.03,1953.1 6760.03,1962.08 6758.01,1971.24 "/>
    <polygon class="fil1 str0" points="6709.13,2253.46 6616.26,2070.62 6618.08,2058.07 6619.92,2045.65 6621.75,2033.37 6623.59,2021.24 6625.42,2009.23 6627.27,1997.37 6629.11,1985.65 6630.95,1974.06 6632.8,1962.63 6634.66,1951.31 6636.52,1940.15 6638.38,1929.12 6640.26,1918.23 6642.13,1907.48 6644.01,1896.87 6645.91,1886.4 6647.81,1876.1 6649.71,1865.95 6651.63,1855.97 6653.56,1846.18 6655.48,1836.54 6657.41,1827.06 6659.34,1817.78 6661.26,1808.65 6663.2,1799.68 6665.13,1790.89 6667.05,1782.27 6668.97,1773.8 6670.89,1765.5 6672.81,1757.39 6674.71,1749.42 6676.61,1741.61 6772,1910.75 6770.02,1918.88 6768.03,1927.18 6766.04,1935.65 6764.04,1944.28 6762.03,1953.1 6760.03,1962.08 6758.01,1971.24 6756,1980.57 6754.01,1990.09 6751.99,1999.76 6749.99,2009.63 6747.98,2019.67 6745.98,2029.87 6743.99,2040.26 6742,2050.83 6740.02,2061.57 6738.04,2072.48 6736.08,2083.53 6734.13,2094.73 6732.17,2106.07 6730.23,2117.55 6728.28,2129.19 6726.36,2140.96 6724.44,2152.88 6722.51,2164.96 6720.6,2177.16 6718.68,2189.52 6716.76,2202.02 6714.85,2214.67 6712.95,2227.45 6711.03,2240.39 "/>
    <polygon class="fil104" points="6772,1910.75 6676.61,1741.61 6871.64,969.17 6975.16,1106.12 "/>
    <polygon class="fil1 str0" points="6772,1910.75 6676.61,1741.61 6871.64,969.17 6975.16,1106.12 "/>
    <polygon class="fil105" points="6975.16,1106.12 6871.64,969.17 7214.58,969.17 7332.4,1106.12 "/>
    <polygon class="fil1 str0" points="6975.16,1106.12 6871.64,969.17 7214.58,969.17 7332.4,1106.12 "/>
    <polygon class="fil106" points="7033.67,2772.07 6927.8,2568.48 6931.99,2019.69 7038.03,2200.4 "/>
    <polygon class="fil1 str0" points="7033.67,2772.07 6927.8,2568.48 6931.99,2019.69 7038.03,2200.4 "/>
    <polygon class="fil107" points="7038.03,2200.4 6931.99,2019.69 6932.07,2009.94 6932.17,2000.13 6932.3,1990.27 6932.44,1980.35 6932.62,1970.37 6932.82,1960.33 6933.05,1950.23 6933.29,1940.07 6933.58,1929.85 7039.68,2106.83 7039.39,2117.47 7039.14,2128.06 7038.9,2138.57 7038.69,2149.04 7038.5,2159.44 7038.35,2169.76 7038.22,2180.04 7038.11,2190.25 "/>
    <polygon class="fil108" points="7039.68,2106.83 6933.58,1929.85 6933.87,1919.57 6934.19,1909.24 6934.54,1898.85 6934.92,1888.39 6935.31,1877.87 6935.73,1867.3 6936.17,1856.66 6936.65,1845.97 6937.14,1835.22 7043.39,2008.26 7042.87,2019.46 7042.38,2030.59 7041.92,2041.67 7041.48,2052.68 7041.07,2063.64 7040.69,2074.53 7040.33,2085.36 7039.99,2096.12 "/>
    <polygon class="fil109" points="7043.39,2008.26 6937.14,1835.22 6937.66,1824.41 6938.2,1813.54 6938.77,1802.6 6939.38,1791.62 6939.98,1780.57 6940.63,1769.46 6941.3,1758.29 6941.99,1747.07 7048.43,1916.43 7047.72,1928.12 7047.02,1939.76 7046.35,1951.33 7045.71,1962.84 7045.09,1974.28 7044.5,1985.67 7043.93,1996.99 "/>
    <polygon class="fil110" points="7048.43,1916.43 6941.99,1747.07 6942.71,1735.78 6943.45,1724.43 6944.21,1713.03 6945,1701.57 6945.81,1690.04 6946.65,1678.46 7053.3,1844.97 7052.42,1857.02 7051.57,1869.04 7050.75,1880.97 7049.95,1892.86 7049.19,1904.68 "/>
    <polygon class="fil1 str0" points="7038.03,2200.4 6931.99,2019.69 6932.07,2009.94 6932.17,2000.13 6932.3,1990.27 6932.44,1980.35 6932.62,1970.37 6932.82,1960.33 6933.05,1950.23 6933.29,1940.07 6933.58,1929.85 6933.87,1919.57 6934.19,1909.24 6934.54,1898.85 6934.92,1888.39 6935.31,1877.87 6935.73,1867.3 6936.17,1856.66 6936.65,1845.97 6937.14,1835.22 6937.66,1824.41 6938.2,1813.54 6938.77,1802.6 6939.38,1791.62 6939.98,1780.57 6940.63,1769.46 6941.3,1758.29 6941.99,1747.07 6942.71,1735.78 6943.45,1724.43 6944.21,1713.03 6945,1701.57 6945.81,1690.04 6946.65,1678.46 7053.3,1844.97 7052.42,1857.02 7051.57,1869.04 7050.75,1880.97 7049.95,1892.86 7049.19,1904.68 7048.43,1916.43 7047.72,1928.12 7047.02,1939.76 7046.35,1951.33 7045.71,1962.84 7045.09,1974.28 7044.5,1985.67 7043.93,1996.99 7043.39,2008.26 7042.87,2019.46 7042.38,2030.59 7041.92,2041.67 7041.48,2052.68 7041.07,2063.64 7040.69,2074.53 7040.33,2085.36 7039.99,2096.12 7039.68,2106.83 7039.39,2117.47 7039.14,2128.06 7038.9,2138.57 7038.69,2149.04 7038.5,2159.44 7038.35,2169.76 7038.22,2180.04 7038.11,2190.25 "/>
    <polygon class="fil111" points="7053.3,1844.97 6946.65,1678.46 6947.54,1666.79 6948.46,1655.06 6949.4,1643.26 6950.34,1631.41 6951.32,1619.51 6952.33,1607.52 6953.35,1595.49 6954.37,1583.4 7061.34,1745.95 7060.27,1758.54 7059.21,1771.07 7058.16,1783.55 7057.14,1795.96 7056.16,1808.3 7055.18,1820.59 7054.22,1832.8 "/>
    <polygon class="fil112" points="7061.34,1745.95 6954.37,1583.4 6955.43,1571.25 6956.52,1559.04 6957.63,1546.77 6958.74,1534.43 6959.9,1522.03 6961.07,1509.58 6962.27,1497.07 7069.57,1656 7068.32,1669.05 7067.1,1682.02 7065.91,1694.94 7064.74,1707.78 7063.58,1720.57 7062.45,1733.3 "/>
    <polygon class="fil113" points="7069.57,1656 6962.27,1497.07 6963.48,1484.49 6964.71,1471.85 6965.97,1459.14 6967.26,1446.38 6968.57,1433.55 6969.89,1420.67 6971.25,1407.72 7078.92,1562.95 7077.51,1576.43 7076.13,1589.86 7074.77,1603.21 7073.43,1616.52 7072.11,1629.74 7070.82,1642.91 "/>
    <polygon class="fil114" points="7078.92,1562.95 6971.25,1407.72 6972.63,1394.71 6974.02,1381.64 6975.45,1368.51 6976.89,1355.31 6978.36,1342.05 6979.86,1328.73 6981.38,1315.34 7089.47,1466.71 7087.89,1480.65 7086.33,1494.54 7084.8,1508.35 7083.3,1522.09 7081.81,1535.77 7080.36,1549.4 "/>
    <polygon class="fil115" points="7089.47,1466.71 6981.38,1315.34 6982.91,1301.9 6984.47,1288.38 6986.06,1274.81 7094.37,1424.49 7092.7,1438.64 7091.07,1452.71 "/>
    <polygon class="fil1 str0" points="7053.3,1844.97 6946.65,1678.46 6947.54,1666.79 6948.46,1655.06 6949.4,1643.26 6950.34,1631.41 6951.32,1619.51 6952.33,1607.52 6953.35,1595.49 6954.37,1583.4 6955.43,1571.25 6956.52,1559.04 6957.63,1546.77 6958.74,1534.43 6959.9,1522.03 6961.07,1509.58 6962.27,1497.07 6963.48,1484.49 6964.71,1471.85 6965.97,1459.14 6967.26,1446.38 6968.57,1433.55 6969.89,1420.67 6971.25,1407.72 6972.63,1394.71 6974.02,1381.64 6975.45,1368.51 6976.89,1355.31 6978.36,1342.05 6979.86,1328.73 6981.38,1315.34 6982.91,1301.9 6984.47,1288.38 6986.06,1274.81 7094.37,1424.49 7092.7,1438.64 7091.07,1452.71 7089.47,1466.71 7087.89,1480.65 7086.33,1494.54 7084.8,1508.35 7083.3,1522.09 7081.81,1535.77 7080.36,1549.4 7078.92,1562.95 7077.51,1576.43 7076.13,1589.86 7074.77,1603.21 7073.43,1616.52 7072.11,1629.74 7070.82,1642.91 7069.57,1656 7068.32,1669.05 7067.1,1682.02 7065.91,1694.94 7064.74,1707.78 7063.58,1720.57 7062.45,1733.3 7061.34,1745.95 7060.27,1758.54 7059.21,1771.07 7058.16,1783.55 7057.14,1795.96 7056.16,1808.3 7055.18,1820.59 7054.22,1832.8 "/>
    <polygon class="fil116" points="6576.48,2560.2 6488.91,2365.09 6337.5,1710.21 6418.75,1878.05 "/>
    <polygon class="fil1 str0" points="6576.48,2560.2 6488.91,2365.09 6337.5,1710.21 6418.75,1878.05 "/>
    <polygon class="fil117" points="6418.75,1878.05 6337.5,1710.21 6334.69,1698.53 6331.9,1686.74 6329.12,1674.85 6326.36,1662.84 6323.62,1650.75 6320.89,1638.55 6318.19,1626.24 6398.63,1790.58 6401.46,1803.39 6404.3,1816.11 6407.16,1828.7 6410.03,1841.19 6412.92,1853.58 6415.83,1865.87 "/>
    <polygon class="fil118" points="6398.63,1790.58 6318.19,1626.24 6315.48,1613.84 6312.78,1601.32 6310.1,1588.7 6307.42,1575.97 6304.76,1563.12 6302.11,1550.18 6299.47,1537.11 6379.15,1697.73 6381.89,1711.33 6384.65,1724.83 6387.42,1738.2 6390.21,1751.46 6393,1764.61 6395.81,1777.65 "/>
    <polygon class="fil119" points="6379.15,1697.73 6299.47,1537.11 6296.85,1523.94 6294.24,1510.64 6373.69,1670.16 6376.41,1684 "/>
    <polygon class="fil1 str0" points="6418.75,1878.05 6337.5,1710.21 6334.69,1698.53 6331.9,1686.74 6329.12,1674.85 6326.36,1662.84 6323.62,1650.75 6320.89,1638.55 6318.19,1626.24 6315.48,1613.84 6312.78,1601.32 6310.1,1588.7 6307.42,1575.97 6304.76,1563.12 6302.11,1550.18 6299.47,1537.11 6296.85,1523.94 6294.24,1510.64 6373.69,1670.16 6376.41,1684 6379.15,1697.73 6381.89,1711.33 6384.65,1724.83 6387.42,1738.2 6390.21,1751.46 6393,1764.61 6395.81,1777.65 6398.63,1790.58 6401.46,1803.39 6404.3,1816.11 6407.16,1828.7 6410.03,1841.19 6412.92,1853.58 6415.83,1865.87 "/>
    <polygon class="fil120" points="6373.69,1670.16 6294.24,1510.64 6291.62,1497.29 6288.98,1483.73 6286.34,1470.01 6283.7,1456.08 6281.05,1441.99 6278.4,1427.72 6357.19,1583.78 6359.96,1598.64 6362.72,1613.32 6365.47,1627.82 6368.22,1642.13 6370.96,1656.24 "/>
    <polygon class="fil121" points="6357.19,1583.78 6278.4,1427.72 6275.74,1413.26 6273.07,1398.61 6270.4,1383.78 6267.73,1368.78 6265.06,1353.58 6262.39,1338.19 6340.51,1490.52 6343.3,1506.54 6346.09,1522.38 6348.87,1538.01 6351.65,1553.45 6354.42,1568.71 "/>
    <polygon class="fil122" points="6340.51,1490.52 6262.39,1338.19 6259.71,1322.63 6257.04,1306.87 6254.35,1290.94 6251.67,1274.81 6329.34,1424.49 6332.13,1441.3 6334.93,1457.89 6337.72,1474.31 "/>
    <polygon class="fil1 str0" points="6373.69,1670.16 6294.24,1510.64 6291.62,1497.29 6288.98,1483.73 6286.34,1470.01 6283.7,1456.08 6281.05,1441.99 6278.4,1427.72 6275.74,1413.26 6273.07,1398.61 6270.4,1383.78 6267.73,1368.78 6265.06,1353.58 6262.39,1338.19 6259.71,1322.63 6257.04,1306.87 6254.35,1290.94 6251.67,1274.81 6329.34,1424.49 6332.13,1441.3 6334.93,1457.89 6337.72,1474.31 6340.51,1490.52 6343.3,1506.54 6346.09,1522.38 6348.87,1538.01 6351.65,1553.45 6354.42,1568.71 6357.19,1583.78 6359.96,1598.64 6362.72,1613.32 6365.47,1627.82 6368.22,1642.13 6370.96,1656.24 "/>
    <polygon class="fil123" points="7999.66,2248.75 7855.16,2066.08 8081.24,2066.08 8235.16,2248.75 "/>
    <polygon class="fil1 str0" points="7999.66,2248.75 7855.16,2066.08 8081.24,2066.08 8235.16,2248.75 "/>
    <polygon class="fil124" points="8235.16,2248.75 8081.24,2066.08 8007.63,1561.94 8158.49,1723.59 "/>
    <polygon class="fil1 str0" points="8235.16,2248.75 8081.24,2066.08 8007.63,1561.94 8158.49,1723.59 "/>
    <polygon class="fil125" points="8158.49,1723.59 8007.63,1561.94 8006.59,1554.16 8005.55,1546.13 8004.53,1537.87 8003.5,1529.36 8002.48,1520.59 8001.47,1511.58 8000.47,1502.33 7999.47,1492.82 7998.47,1483.06 7997.48,1473.06 8147.91,1631 8148.95,1641.42 8149.99,1651.58 8151.02,1661.49 8152.07,1671.14 8153.13,1680.52 8154.19,1689.65 8155.25,1698.52 8156.32,1707.12 8157.4,1715.48 "/>
    <polygon class="fil126" points="8147.91,1631 7997.48,1473.06 7996.49,1462.79 7995.5,1452.28 7994.52,1441.53 7993.54,1430.51 7992.56,1419.26 7991.57,1407.73 7990.61,1396.01 7989.66,1384.11 8139.77,1538.35 8140.75,1550.74 8141.76,1562.96 8142.79,1574.95 8143.8,1586.69 8144.83,1598.16 8145.86,1609.37 8146.89,1620.31 "/>
    <polygon class="fil127" points="8139.77,1538.35 7989.66,1384.11 7988.73,1372.06 7987.85,1359.84 7986.98,1347.46 7986.14,1334.9 7985.32,1322.18 7984.53,1309.3 7983.75,1296.25 8133.6,1446.82 8134.41,1460.42 8135.23,1473.84 8136.09,1487.09 8136.97,1500.17 8137.88,1513.07 8138.81,1525.8 "/>
    <polygon class="fil128" points="8133.6,1446.82 7983.75,1296.25 7982.99,1283.01 7982.27,1269.64 7981.57,1256.08 7980.9,1242.35 7980.26,1228.44 7979.62,1214.39 7979.03,1200.13 8128.69,1346.71 8129.31,1361.56 8129.97,1376.2 8130.64,1390.68 8131.34,1404.98 8132.06,1419.11 8132.82,1433.05 "/>
    <polygon class="fil1 str0" points="8158.49,1723.59 8007.63,1561.94 8006.59,1554.16 8005.55,1546.13 8004.53,1537.87 8003.5,1529.36 8002.48,1520.59 8001.47,1511.58 8000.47,1502.33 7999.47,1492.82 7998.47,1483.06 7997.48,1473.06 7996.49,1462.79 7995.5,1452.28 7994.52,1441.53 7993.54,1430.51 7992.56,1419.26 7991.57,1407.73 7990.61,1396.01 7989.66,1384.11 7988.73,1372.06 7987.85,1359.84 7986.98,1347.46 7986.14,1334.9 7985.32,1322.18 7984.53,1309.3 7983.75,1296.25 7982.99,1283.01 7982.27,1269.64 7981.57,1256.08 7980.9,1242.35 7980.26,1228.44 7979.62,1214.39 7979.03,1200.13 8128.69,1346.71 8129.31,1361.56 8129.97,1376.2 8130.64,1390.68 8131.34,1404.98 8132.06,1419.11 8132.82,1433.05 8133.6,1446.82 8134.41,1460.42 8135.23,1473.84 8136.09,1487.09 8136.97,1500.17 8137.88,1513.07 8138.81,1525.8 8139.77,1538.35 8140.75,1550.74 8141.76,1562.96 8142.79,1574.95 8143.8,1586.69 8144.83,1598.16 8145.86,1609.37 8146.89,1620.31 8147.91,1631 8148.95,1641.42 8149.99,1651.58 8151.02,1661.49 8152.07,1671.14 8153.13,1680.52 8154.19,1689.65 8155.25,1698.52 8156.32,1707.12 8157.4,1715.48 "/>
    <polygon class="fil129" points="7573.73,2772.07 7446.27,2568.48 7809.11,969.17 7951.69,1106.12 "/>
    <polygon class="fil1 str0" points="7573.73,2772.07 7446.27,2568.48 7809.11,969.17 7951.69,1106.12 "/>
    <polygon class="fil130" points="7951.69,1106.12 7809.11,969.17 8143.34,969.17 8299.86,1106.12 "/>
    <polygon class="fil1 str0" points="7951.69,1106.12 7809.11,969.17 8143.34,969.17 8299.86,1106.12 "/>
    <polygon class="fil131" points="8328.57,2772.07 8170.9,2568.48 8126.95,2308.9 8282.77,2501.68 "/>
    <polygon class="fil1 str0" points="8328.57,2772.07 8170.9,2568.48 8126.95,2308.9 8282.77,2501.68 "/>
   </g>
   <path class="fil132 str1" d="M4.25 2390.84l285.66 -76.68c8.36,69.42 28.35,123.21 59.6,160.99 31.26,38.17 71.24,57.07 119.21,57.07 42.89,0 77.4,-15.26 103.94,-45.8 26.52,-30.52 39.98,-70.5 39.98,-120.29 0,-46.88 -13.82,-91.22 -41.08,-133.01 -27.25,-41.8 -89.76,-104.3 -187.52,-187.16 -134.83,-114.48 -226.06,-210.43 -273.66,-288.2 -47.6,-77.77 -71.23,-161.35 -71.23,-250.76 0,-130.11 39.98,-234.77 119.57,-314.36 79.95,-79.59 184.62,-119.21 314.36,-119.21 124.29,0 224.23,31.25 299.83,93.41 75.23,62.15 124.66,153.73 147.18,275.46l-263.84 91.23c-7.63,-67.24 -25.44,-118.12 -52.7,-153.01 -27.25,-34.52 -63.23,-51.97 -107.94,-51.97 -41.79,0 -75.58,13.82 -101.39,41.45 -25.8,27.61 -38.88,64.32 -38.88,109.75 0,79.22 70.5,177.35 211.51,293.65 34.16,28.35 60.34,49.78 78.87,64.69 101.39,88.67 172.98,170.45 214.42,244.94 41.43,74.5 62.15,156.64 62.15,246.04 0,146.09 -41.79,262.03 -125.02,347.44 -83.58,85.4 -196.62,128.29 -339.44,128.29 -125.39,0 -227.87,-36.35 -307.1,-109.03 -79.21,-72.68 -127.93,-174.44 -146.46,-304.91zm1178.6 -166.08l0 -1118.63 322.73 0 0 1120.81c0,118.47 10.18,199.16 30.17,242.41 20.34,43.24 55.24,65.05 105.02,65.05 50.52,0 85.77,-21.8 106.48,-65.42 20.72,-43.6 30.9,-124.29 30.9,-242.04l0 -1120.81 322.71 0 0 1118.63c0,198.07 -37.43,344.16 -112.28,438.29 -74.87,94.5 -190.8,141.74 -347.81,141.74 -157.01,0 -272.56,-47.24 -346.71,-141.74 -74.13,-94.13 -111.21,-240.22 -111.21,-438.29zm1268 547.32l0 -1665.95 376.88 0c168.27,0 293.65,46.16 376.15,138.83 82.5,92.68 123.57,232.59 123.57,419.75 0,175.54 -46.16,312.55 -138.1,411.4 -91.95,99.23 -220.24,148.65 -384.87,148.65l-30.9 0 0 547.32 -322.73 0zm322.73 -1419.55l0 614.92 12.73 0c69.78,0 122.48,-26.53 158.08,-79.23 35.98,-53.05 53.79,-130.82 53.79,-232.95 0,-100.31 -18.17,-175.17 -54.88,-224.24 -36.35,-49.41 -93.03,-75.58 -169.72,-78.49zm834.43 1419.55l0 -1665.95 401.22 0c175.17,0 307.83,39.26 397.6,118.11 89.76,78.87 134.46,195.16 134.46,348.9 0,106.48 -23.26,195.89 -70.15,268.58 -46.88,72.68 -113.75,123.56 -200.25,151.9l300.92 778.47 -336.17 0 -280.56 -785 -30.88 0 0 785 -316.19 0zm316.19 -952.91c4.36,0 10.54,0.36 18.53,1.1 8.36,0.72 14.53,1.08 18.53,1.08 82.5,0 146.09,-20.71 191.52,-62.5 45.42,-41.45 67.96,-99.96 67.96,-175.18 0,-75.22 -22.17,-132.28 -66.87,-170.81 -44.69,-38.89 -110.11,-58.15 -196.61,-58.15l-33.07 0 0 464.46zm1238.55 429.58l235.51 0 -76.68 -525.16c-5.82,-42.53 -11.27,-95.95 -16.72,-160.63 -5.45,-64.69 -9.81,-136.65 -13.08,-216.24l-20.35 0c-7.28,94.5 -13.82,177.36 -20.35,248.22 -6.18,70.87 -11.28,115.94 -14.9,135.19l-73.41 518.62zm-425.93 523.33l377.97 -1665.95 348.16 0 368.52 1665.95 -339.81 0 -45.79 -270.4 -331.07 0 -55.24 270.4 -322.73 0zm1350.49 0l0 -1665.95 364.52 0 176.62 785.73c17.08,71.6 30.54,135.92 40.36,192.61 9.81,56.7 18.16,112.67 24.34,168.27l15.99 0.73c10.17,-70.14 20.34,-134.1 30.89,-191.89 10.54,-57.78 21.44,-107.94 31.98,-150.82l203.16 -804.63 357.25 0 0 1665.95 -298.74 0 4.36 -571.67c0.72,-107.93 5.82,-226.41 15.27,-355.44 9.81,-129.37 23.25,-269.3 41.07,-420.47l-19.26 0c-21.08,117.02 -39.99,218.05 -56.7,303.45 -16.72,85.05 -29.8,147.55 -38.89,187.16l-153.37 645.09 -249.67 0 -157.73 -682.15c-15.63,-64.69 -30.53,-133.74 -45.06,-207.89 -14.54,-73.76 -29.44,-155.55 -44.34,-245.66l-19.25 0c17.8,162.44 31.61,309.99 41.79,442.66 9.82,132.64 15.62,243.85 17.08,333.25l10.55 571.67 -292.21 0zm1912.36 -523.33l235.5 0 -76.67 -525.16c-5.82,-42.53 -11.27,-95.95 -16.72,-160.63 -5.45,-64.69 -9.81,-136.65 -13.08,-216.24l-20.36 0c-7.27,94.5 -13.81,177.36 -20.34,248.22 -6.18,70.87 -11.28,115.94 -14.9,135.19l-73.41 518.62zm-425.93 523.33l377.96 -1665.95 348.17 0 368.52 1665.95 -339.81 0 -45.79 -270.4 -331.08 0 -55.23 270.4 -322.73 0z"/>
   <path class="fil133" d="M11644.41 3912.9c229.82,-43.28 299.17,304.49 67.26,353.51 -225.44,47.64 -310.18,-307.76 -67.26,-353.51zm-1529.3 -1624.04c92.59,-32.74 225.05,198.48 268.54,265.04 32.51,49.74 80.55,128.24 87.61,186.92 13.52,112.49 -77.3,109.6 -155.6,78.18 -87.49,-35.1 -254.01,-153.91 -320.3,-222.23 -59.64,-61.47 -84.3,-108.53 -26.42,-184.25 36.27,-47.43 89.19,-103.52 146.17,-123.67zm-164.71 -153.35c4.22,26.53 16.29,19.98 28.04,45.52l-17.66 22.78 -29.04 37.37c-8.35,13.34 -37.28,42.96 -52.18,44.06 -9.81,13.62 -27.37,25.94 -43,32.83 -23.05,-8.78 -17.79,-25.26 -42.7,-27.45 -24.75,43.67 -65.17,69.6 -76.42,126.05 -9.42,47.21 5.93,129.61 42.23,161.12 -1.04,35.36 89.98,114.6 107.08,145.51 26.54,16.26 63.17,52.87 91.6,73.71 87.98,64.46 222.46,145.75 288.31,216.01 139.94,149.35 179.54,226.24 269.24,407.33 122.11,246.5 248.76,394.37 417.28,595.37 32.8,39.12 133.88,144.59 173.66,169.07l20.14 -22.91c40.63,45.74 133.01,109.27 183.34,153.37 139.29,122.06 325.6,186.36 506.21,123.28 96.5,-33.7 127.93,-81.53 189.82,-151.92l41.15 -0.04 5.83 -122.44c-0.24,-5.5 27.31,-48.85 -7.22,-166.72 -50.59,-172.75 -205,-397.09 -339.38,-519.89l-65.73 -61.93c-0.83,-1.39 -3.28,-8.98 -3.33,-11.09 -0.36,-15.54 -5.9,-5.2 4.68,-17.17 -34.85,-41.45 -240.91,-214.55 -337.69,-292.68 -235.07,-199.44 -561.95,-256.47 -772.86,-578.4 -29.85,-45.56 -56.24,-94 -86.2,-139.46 -21.19,-32.16 -91.37,-108.19 -100.73,-127.51 -15.56,-7.83 -129.1,-107.84 -129.2,-110.92 -48.32,-15.12 -71.87,-58.89 -134.11,-61.82 -59.89,-2.83 -89.51,25.72 -131.14,58.95z"/>
   <path class="fil134" d="M7862.79 4398.36c18.3,3.23 79.69,32.05 111.62,40.43 193.65,50.81 471.58,28.19 642.74,-76.06 38.89,-23.68 104.23,-138.23 119.67,-182.58l3.74 103.78 31.36 -0.53 3.35 -128.26 -25.49 -7.64c15.44,-17.27 32.47,-9.8 28.72,-36.91 -4.34,-31.41 -10.66,-2.97 0.67,-45.31 10.32,-38.53 14.47,-65.9 18.6,-105.75 8.12,-78.39 0.48,-156.6 -20.2,-232.23 -39.79,-145.5 -97.88,-207.77 -193.48,-314.51l17.51 -14.2c-19.93,-7.58 -12.63,18.58 -35.9,-9.69l38.93 -5.17c-6.15,-13.65 -10.99,-24.78 -29.4,-22.6 -20.45,2.42 -16.57,11.1 -24.73,27.12 -8.07,-16.5 -6.99,-13.28 -1.59,-25.68 -39.78,0.87 -55.08,-21.1 -91.14,-38.54 -28.71,-13.87 -72.6,-26.69 -93.35,-40.65 12.64,-30.26 25.5,-67.95 -3.07,-93.73l44.03 1.56c-61.21,77.14 50.56,160.37 116.6,93.02 -5.16,-19.15 -4.08,-6.77 -20,-24.42 -19.88,6.31 -73.73,36.92 -76.05,-19.75 -1.83,-44.56 39.22,-48.03 69.79,-24.74 14.53,-9.57 27.56,-14.29 20,-29.62l23.44 -5.21 3.29 125 33.55 -2.93 0.75 -51.04c54.59,34.2 11.98,53.04 105.18,53.62 -17.15,-13.6 -61.95,-55.67 -72.35,-74.34 0.1,-0.15 63.05,-60.05 63.23,-60.17 -85.23,-4.17 -55.11,23.42 -94.43,36.58 -14.5,-61.19 39.04,-32.34 112.19,-104.73l621.5 -621.52c11.57,-11.39 39.2,-39.45 50.23,-51.16l84.52 -87.1c17.96,-11.72 23.63,0.3 47.19,-7.49 -0.19,-17.75 -10.39,-5.48 -16.04,-25.27 36.51,-32.62 67.84,-62.89 102.9,-97.95 46.45,-46.45 94.96,-66.68 40.39,-113.95 -18.25,46 -143.9,159.01 -186.35,198.63 -61.85,57.71 -129.55,128.81 -188.47,190.38 -120.9,126.35 -251.39,254.53 -376.53,377.2 -63.73,62.46 -126.39,126.45 -189.36,189.75 -212.72,213.81 -407.07,43.93 -613.08,131.21 -149.09,63.17 -445.91,285.32 -486.45,453.17 -8.85,36.64 -10.92,131.14 42.82,134.63 56.59,3.66 485.39,-203.25 564.42,-184.3 131.42,31.5 270.42,339.33 179.38,524.65 -41.75,84.98 -386.27,163.73 -511.92,241.25 -0.52,18.97 -3.78,29.36 7.08,43.73z"/>
   <path class="fil135" d="M7847.54 272.65c11.32,26.61 168.95,233.77 192.16,252.59 75.5,61.21 186.57,133.21 251.48,199.68 148.48,152.08 297.46,304.56 443.25,459.16 145.11,153.88 301.18,303.08 444.58,457.81 31.14,33.6 410.36,434.3 442.24,456.14 54.57,47.27 6.07,67.5 -40.39,113.95 -35.07,35.06 -66.4,65.33 -102.9,97.95 -10.14,10.5 -13.42,15.22 -31.15,32.76l-84.52 87.1c-11.1,11.78 -38.61,39.72 -50.23,51.16l-621.5 621.52c-127.77,92.04 -207,94.27 -285.18,88.75l-44.03 -1.56c28.57,25.78 15.7,63.47 3.07,93.73 20.74,13.96 64.64,26.78 93.35,40.65 37.4,22.09 71.43,42.29 126.32,88.75 95.61,106.74 153.7,169.01 193.48,314.51 20.68,75.63 28.32,153.84 20.2,232.23 -4.13,39.86 -8.29,67.23 -18.6,105.75 -19.45,72.71 -15.31,46.76 -42.35,114.86 -15.43,44.34 -80.78,158.89 -119.67,182.58 -171.16,104.25 -449.08,126.88 -642.74,76.06 -31.93,-8.38 -93.32,-37.2 -111.62,-40.43 70.06,96.53 265.79,113.9 375.37,110.54 133.71,-4.08 270.98,-36.9 388.42,-101.97 439.61,-243.58 305.43,-746.6 509.86,-949.88 99.61,-99.06 687.65,-679.52 730.31,-733.74 -17.1,-30.91 -108.12,-110.15 -107.08,-145.51 -13.52,48.13 -192.98,207.57 -239.64,254.89 -79.19,80.3 -162.85,168.2 -244.94,244.56 -82.53,76.76 -163.83,165.02 -244.83,244.83 -51.82,51.05 -87.78,88.97 -169.82,70.24 -65.33,-14.91 -88.72,-100.97 -66.11,-158.18 24.5,-62.01 404.64,-420.88 480.72,-497.59 81.01,-81.67 161.5,-165.37 243.46,-246.01 76.53,-75.32 171.18,-160.77 241.19,-239.86 10.57,11.88 34.64,23.66 34.18,39.95 24.9,2.19 19.64,18.67 42.7,27.45 15.62,-6.89 33.19,-19.21 43,-32.83 -80.73,-71.78 -173.58,-174.47 -249.27,-254.77 -82.03,-87.01 -169.48,-171.04 -249.97,-258.81 -80.49,-87.77 -169.1,-170.19 -249.65,-259 -39.8,-43.87 -86.33,-83.18 -126.49,-127.86 -37.67,-41.9 -81.45,-88.49 -121.74,-127.74 -99.72,-97.15 -431.68,-459.63 -501.92,-511.4 -97.26,-71.68 -195.14,-145.57 -293.29,-215.96 -58.06,-41.66 -78.69,-76.26 -121.64,-132.11 -17.13,-22.26 -95.19,-132.13 -110.43,-140.63l-7.61 15.69z"/>
   <path class="fil135" d="M7829.85 250.06l22.07 6.3c-3.05,-14.73 -93.42,-136.15 -98.28,-137.53 16.79,-15.87 25.07,-29.01 40.2,-44.01 7.28,-7.24 16.77,-12.02 24.66,-18.76 14.62,-12.5 7.5,-13.69 23.32,-24.54 25.16,-37.64 42.49,-1.65 70.91,20.75 25.12,19.79 49.36,39.95 74.02,60.28 279.76,230.64 200.81,131.27 388.07,423.09 74.82,116.58 148.95,188.19 251.58,291.05 89.81,89.99 175.83,187.01 265.91,276.35 89.42,88.68 181.48,183.08 266.69,275.72 85.4,92.84 181.04,181.85 267.13,275.22 85.7,92.96 179.4,183.33 266.97,275.41 85.77,90.19 177.9,189.34 267.68,274.41l17.66 -22.78c-11.75,-25.54 -23.82,-18.99 -28.04,-45.52 -8.75,1.53 -30.7,-23.75 -38.95,-33.28 8.21,-17.22 735.01,-741.07 852.57,-857.48 60.92,-60.33 229.65,-255.7 303.87,-266.94 92.27,-13.97 156.48,51.42 132.47,143.93 -15.89,61.32 -84.68,117.02 -129.12,161.46 -280.74,280.74 -574.16,582.96 -855.59,855.17 0.1,3.08 113.64,103.09 129.2,110.92 71.88,-82.76 327.53,-330.57 422.55,-425.13 141.88,-141.16 281.69,-285 424.55,-425.06 97.87,-95.94 121.67,-130.56 266.88,-155.88 123.26,-21.48 239.12,-7.25 355.19,-71.61 153.4,-85.05 404.82,-255.97 399.21,-452.94 -14.55,13.4 -34.38,80.96 -53.25,108.25 -21.45,31.03 -42.28,57.56 -68.03,85.06 -47.37,50.6 -109.54,105.45 -167.16,144.09 -132.49,88.85 -363.35,52.19 -493.28,-30 -218.83,-138.45 -306.02,-409.74 -221,-650.48 42.36,-119.91 77.02,-134.01 110.77,-199.94 -56.7,30.94 -121.17,94.21 -159.32,146.3 -23.01,31.41 -28.93,53.97 -51.58,83.1 -12.71,16.34 -12.23,28.42 -22.34,46.53 -9.17,16.41 5.02,7.77 7.64,30.74 -32.03,28.08 -24.79,-2.8 -38.65,50.54 -50.25,193.4 -46.45,235.06 -205.46,405.86 -207.7,223.09 -477.46,472.37 -699.82,701.81 -59.05,60.92 -301.98,316.65 -353.68,347.06 -17.95,-13.94 -24.5,-14.35 -35.8,-33.11 -25.4,-34.18 -82.79,-94.71 -114.86,-123.4 -41.39,-37.03 -77.13,-83.42 -118.16,-121.92 -78.43,-73.59 -162.46,-168.05 -237.48,-247.24 -156.12,-164.81 -318.13,-325.68 -474.63,-490.16 -77.07,-81 -155.55,-166.67 -235.6,-244.32 -182.76,-177.31 -194.25,-226.98 -325.17,-399.54 -21.35,-28.14 -358.74,-303.91 -397.48,-327.91 -13.21,5.85 -115.11,105.55 -126.57,120.44 5.97,18.91 86.92,127.2 97.51,129.62z"/>
   <path class="fil134" d="M9762.29 1954.49c11.3,18.75 17.84,19.17 35.8,33.11 51.69,-30.41 294.63,-286.14 353.68,-347.06 222.35,-229.44 492.12,-478.71 699.82,-701.81 159,-170.8 155.21,-212.46 205.46,-405.86 13.86,-53.34 6.62,-22.46 38.65,-50.54 -2.62,-22.97 -16.8,-14.33 -7.64,-30.74 10.12,-18.11 9.64,-30.19 22.34,-46.53 22.65,-29.13 28.57,-51.69 51.58,-83.1 38.16,-52.09 102.62,-115.36 159.32,-146.3 -33.75,65.93 -68.42,80.03 -110.77,199.94 -85.02,240.75 2.17,512.03 221,650.48 129.92,82.19 360.78,118.85 493.28,30 57.62,-38.64 119.79,-93.49 167.16,-144.09 25.75,-27.5 46.57,-54.03 68.03,-85.06 18.87,-27.29 38.7,-94.86 53.25,-108.25 -18.71,-86.22 -101.54,-27.37 -157.67,-9.71 -94.82,29.85 -319.61,138.26 -378.87,115.58 -39.1,-14.96 -97.69,-101.55 -114.93,-139.41 -27.39,-60.1 -44.86,-142.53 -38.52,-208.24 7.84,-81.25 27.1,-116.83 103.22,-144.82 43.63,-16.04 341.15,-134.32 354.87,-150.53 13.44,-63.76 -104.21,-97.8 -151.77,-109.2 -75.94,-18.22 -165.94,-22.6 -243.55,-15.24 -293.06,27.76 -498.1,198.32 -569.52,484.1 -42.09,168.41 -60.24,223.88 -179.74,353.78 -167.89,182.5 -363.56,351.71 -532.37,533.3 -81.92,88.13 -179.56,181.87 -266.34,266.53 -47.13,45.98 -231.74,248.22 -275.78,259.67z"/>
   <path class="fil134" d="M9950.4 2135.51c41.64,-33.23 71.26,-61.78 131.14,-58.95 62.24,2.93 85.79,46.69 134.11,61.82 281.43,-272.22 574.85,-574.43 855.59,-855.17 44.44,-44.44 113.23,-100.15 129.12,-161.46 24,-92.51 -40.21,-157.89 -132.47,-143.93 -74.22,11.24 -242.96,206.61 -303.87,266.94 -117.56,116.41 -844.37,840.26 -852.57,857.48 8.25,9.53 30.2,34.81 38.95,33.28z"/>
   <path class="fil134" d="M9759.67 2577.79c-36.3,-31.51 -51.64,-113.91 -42.23,-161.12 11.26,-56.45 51.67,-82.37 76.42,-126.05 0.46,-16.28 -23.61,-28.07 -34.18,-39.95 -70.01,79.08 -164.65,164.53 -241.19,239.86 -81.95,80.64 -162.44,164.34 -243.46,246.01 -76.08,76.7 -456.22,435.58 -480.72,497.59 -22.61,57.21 0.78,143.27 66.11,158.18 82.04,18.73 118,-19.18 169.82,-70.24 81,-79.81 162.3,-168.07 244.83,-244.83 82.09,-76.36 165.75,-164.26 244.94,-244.56 46.65,-47.32 226.12,-206.76 239.64,-254.89z"/>
   <path class="fil134" d="M7829.85 250.06c9.2,16.05 4.92,13.94 17.69,22.59l7.61 -15.69c15.24,8.5 93.3,118.37 110.43,140.63 42.95,55.85 63.58,90.46 121.64,132.11 98.15,70.4 196.03,144.29 293.29,215.96 70.25,51.77 402.21,414.26 501.92,511.4 40.29,39.25 84.07,85.84 121.74,127.74 40.16,44.67 86.69,83.98 126.49,127.86 80.55,88.81 169.16,171.23 249.65,259 80.49,87.77 167.94,171.8 249.97,258.81 75.69,80.3 168.54,182.99 249.27,254.77 14.9,-1.11 43.83,-30.73 52.18,-44.06 -45.01,-27.21 -215.51,-218.94 -265.64,-270.41l-793.94 -818.84c-88.03,-91.1 -176.72,-181.71 -264.67,-272.84 -44.03,-45.63 -86.34,-92.64 -131.78,-136.83 -100.01,-97.23 -143.46,-192.97 -214.33,-323.47 -45,-82.88 -49.06,-87.52 -123.76,-144.98 -96.1,-73.93 -204.4,-162.65 -295.8,-242.3 -15.82,10.86 -8.7,12.05 -23.32,24.54 -7.89,6.75 -17.38,11.53 -24.66,18.76 -15.12,15 -23.4,28.14 -40.2,44.01 4.86,1.38 95.23,122.8 98.28,137.53l-22.07 -6.3z"/>
   <path class="fil136" d="M11305.62 3307.73c-36.19,-31.8 -86.25,-65.47 -156.3,-112.71 -99.91,-69.23 -421.44,-266.47 -511.4,-214.09 -94.42,54.98 7.92,238.42 40.82,309.86 42.45,92.18 100.22,191.53 155.7,276.62 59.16,90.74 113.41,161.73 182.1,245.03 213.85,259.38 476.03,-2.58 498.58,-145.92 41.64,-172.65 -206.82,-356.29 -209.49,-358.8z"/>
   <path class="fil135" d="M7841.83 31.51c91.4,79.64 199.7,168.36 295.8,242.3 74.69,57.46 78.75,62.1 123.76,144.98 70.87,130.49 114.32,226.24 214.33,323.47 45.44,44.19 87.75,91.2 131.78,136.83 87.95,91.14 176.64,181.75 264.67,272.84l793.94 818.84c50.12,51.46 220.62,243.2 265.64,270.41l29.04 -37.37c-89.78,-85.07 -181.91,-184.23 -267.68,-274.41 -87.57,-92.09 -181.27,-182.46 -266.97,-275.41 -86.09,-93.38 -181.73,-182.39 -267.13,-275.22 -85.21,-92.65 -177.27,-187.04 -266.69,-275.72 -90.08,-89.34 -176.1,-186.37 -265.91,-276.35 -102.63,-102.85 -176.76,-174.47 -251.58,-291.05 -187.26,-291.82 -108.31,-192.45 -388.07,-423.09 -24.66,-20.33 -48.9,-40.49 -74.02,-60.28 -28.42,-22.4 -45.74,-58.39 -70.91,-20.75z"/>
   <path class="fil136" d="M11106.84 4184.8c15.78,27.27 164.74,143.66 199.83,172.63 68.31,56.36 151.15,108.4 233.91,140.43 215.85,83.53 400.74,50.56 524.95,-151.42 211.96,-344.67 -196.82,-735.08 -423.17,-959.11 -10.58,11.98 -5.04,1.63 -4.68,17.17 0.05,2.11 2.5,9.7 3.33,11.09l65.73 61.93c134.38,122.8 288.79,347.14 339.38,519.89 34.53,117.87 6.98,161.22 7.22,166.72l-46.97 122.48c-61.9,70.39 -93.33,118.22 -189.82,151.92 -180.62,63.08 -366.92,-1.22 -506.21,-123.28 -50.32,-44.09 -142.71,-107.62 -183.34,-153.37l-20.14 22.91z"/>
   <path class="fil136" d="M10352.08 2798.31c5.95,-7.09 75.38,-74.86 83.7,-81.04 12.23,18.55 16.59,59.64 -1.02,79.88 -16.12,18.51 -55.78,17.01 -72.38,8.65 -8.85,-4.46 -4.66,-2.37 -10.3,-7.49zm-102.21 -47.54c18,-19.22 49.33,-40.11 71.65,-62.15 19.95,-19.7 48.55,-56.73 66.97,-72.1 13.08,14.3 30.61,47.84 35.26,68.05 -17.03,25.92 -54.73,60.71 -77.96,81.18 -17.39,15.33 -24.13,27.25 -46.29,16.96 -16.05,-7.44 -40.06,-20.29 -49.61,-31.94zm-95.65 -62.36c11.9,-14.69 69.32,-54.34 91.03,-75.93 19.25,-19.15 69.15,-84.18 80.83,-93.1 16.86,13 48.83,58.04 39.49,78.18 -9.9,21.31 -106.81,116.97 -131.27,129.46 -23.39,11.96 -63.29,-20.54 -80.07,-38.62zm-85.54 -62.4c10.59,-11.94 39.56,-27.89 54.63,-39.51 71.54,-55.07 91.61,-91.98 140.63,-159.43 10.88,9.29 20.25,22.22 29.25,35.11 15.78,22.59 19.59,25.73 3.65,47.94 -37.84,52.75 -91.11,107.12 -144.56,143.69 -23.31,15.95 -23.28,18.88 -45.07,4.27 -13.68,-9.18 -28.94,-19.45 -38.53,-32.07zm-75.53 -77.2c13.36,-13.19 61.98,-40.24 109.92,-88.24 23.28,-23.32 77.4,-104.13 88.61,-113.14l52.53 51.91c-16.93,58.89 -124.42,163.44 -180.43,195 -23.21,13.09 -22.89,11.97 -40.42,-6.25 -12.28,-12.77 -23.22,-23.35 -30.22,-39.29zm-17.04 -24.52c-42.57,-42.43 22.02,-109.01 52.14,-138.51 31.37,-30.74 86.83,-93.44 134.1,-66.79 8.12,57.07 -136.04,177.39 -186.25,205.3zm139.01 -235.44c-56.98,20.14 -109.9,76.23 -146.17,123.67 -57.88,75.71 -33.22,122.78 26.42,184.25 66.29,68.33 232.81,187.13 320.3,222.23 78.29,31.42 169.11,34.31 155.6,-78.18 -7.06,-58.69 -55.1,-137.18 -87.61,-186.92 -43.48,-66.56 -175.95,-297.78 -268.54,-265.04z"/>
   <path class="fil137" d="M11214.52 3309.21c-29.75,69.36 -79.21,126.64 -133.63,172.4 -43.09,36.24 -87.9,68.64 -140.16,90.53 -17.05,7.14 -41.93,10.55 -58.38,19.9l55.38 77.98c128.91,32.24 365.68,-197.92 367.28,-325.32l-71.5 -60.74 -12.41 -4.15 -6.59 29.39z"/>
   <path class="fil137" d="M11327.57 3370.27c-6.04,65.48 -94.42,175.26 -139.65,218.39 -108.44,103.39 -201.8,98.9 -223.63,117.58l48.45 60.42c101.74,6.87 192.06,-60.9 262.44,-124.34 29.46,-26.55 68.31,-72.21 89.55,-107.17 51.41,-86.4 59.53,-82.59 -37.16,-164.88z"/>
   <path class="fil137" d="M11191.14 3287.7l1.89 -30.43c-25.29,-17.04 -60.76,-49.13 -89.36,-57.44 -12.38,16.77 -25.77,65.96 -45.17,95.86 -16.26,25.06 -45.42,60.44 -65.2,79.13 -89.56,84.64 -111.31,70.35 -177.57,105.58 3.49,18.15 35.14,66.05 47.94,80.59 107.35,2.61 307.1,-171.87 327.47,-273.29z"/>
   <path class="fil137" d="M11042.99 3797.2c7.47,12.78 45.12,51.56 58.01,55.42 21.21,6.36 71.55,-10 93.09,-18.04 95.63,-35.75 200.12,-120.47 250.61,-209.68 36.09,-63.76 40.45,-98.41 -14.63,-151.96 -17.74,17.97 -65.06,171.16 -256.75,279.06 -69.95,39.37 -108.81,32.73 -130.32,45.19z"/>
   <path class="fil137" d="M10751.06 3370l43.85 81.81c106.08,-0.21 277.26,-168.59 278.85,-273.81 -19.99,-13.49 -56.78,-41.57 -80.09,-43.04 -43.69,97.52 -66.99,136.5 -162.8,197.36 -24.58,15.6 -65.1,27.27 -79.81,37.69z"/>
   <path class="fil137" d="M10697.58 3259.6l35.79 80.63c85.24,-0.52 229.23,-139.93 234.35,-224.23 -16.66,-11.4 -60.85,-36.51 -79.91,-39.23 -72.57,140.82 -78.45,119.21 -190.22,182.83z"/>
   <path class="fil137" d="M9993.15 2548.81c7,15.93 17.94,26.52 30.22,39.29 17.52,18.21 17.2,19.33 40.42,6.25 56.01,-31.56 163.49,-136.11 180.43,-195l-52.53 -51.91c-11.21,9.01 -65.33,89.82 -88.61,113.14 -47.94,48 -96.57,75.05 -109.92,88.24z"/>
   <path class="fil137" d="M10649.88 3148.77l30.91 82.4c67.88,-3.32 169.96,-102.91 179.03,-168.36 -14.84,-13.13 -57.77,-31.91 -77.84,-35.43 -87.25,107.53 -41.92,57.87 -132.09,121.39z"/>
   <path class="fil137" d="M11140.91 3881.54c96.97,30.71 161.59,9.12 241.01,-55.69 63.62,-51.91 117.73,-124.81 107.15,-218.03 -4.67,1.88 -50,76.13 -62.13,90.36 -134.32,157.58 -258.1,163.66 -286.03,183.37z"/>
   <path class="fil137" d="M10068.68 2626.01c9.59,12.62 24.85,22.89 38.53,32.07 21.79,14.61 21.76,11.69 45.07,-4.27 53.45,-36.57 106.72,-90.94 144.56,-143.69 15.94,-22.21 12.14,-25.35 -3.65,-47.94 -9,-12.89 -18.37,-25.82 -29.25,-35.11 -49.02,67.46 -69.1,104.36 -140.63,159.43 -15.07,11.62 -44.04,27.57 -54.63,39.51z"/>
   <path class="fil137" d="M10154.22 2688.41c16.78,18.07 56.68,50.57 80.07,38.62 24.46,-12.5 121.38,-108.15 131.27,-129.46 9.35,-20.14 -22.62,-65.19 -39.49,-78.18 -11.69,8.92 -61.58,73.94 -80.83,93.1 -21.71,21.59 -79.13,61.24 -91.03,75.93z"/>
   <path class="fil137" d="M9976.1 2524.29c50.2,-27.91 194.36,-148.23 186.25,-205.3 -47.27,-26.65 -102.73,36.05 -134.1,66.79 -30.12,29.5 -94.71,96.09 -52.14,138.51z"/>
   <path class="fil137" d="M10249.87 2750.77c9.56,11.65 33.56,24.5 49.61,31.94 22.16,10.29 28.9,-1.63 46.29,-16.96 23.23,-20.47 60.93,-55.26 77.96,-81.18 -4.65,-20.2 -22.18,-53.75 -35.26,-68.05 -18.41,15.37 -47.01,52.4 -66.97,72.1 -22.31,22.04 -53.64,42.93 -71.65,62.15z"/>
   <path class="fil137" d="M10638.51 3119.18c37.2,-6.58 103.31,-70.65 114.44,-104.04 -24.02,-17.32 -88.06,-29.35 -111.81,-1.97 -23.55,27.12 -21.52,77.94 -2.63,106.01z"/>
   <path class="fil137" d="M10352.08 2798.31c5.64,5.12 1.45,3.03 10.3,7.49 16.6,8.37 56.26,9.87 72.38,-8.65 17.61,-20.24 13.25,-61.33 1.02,-79.88 -8.32,6.18 -77.75,73.95 -83.7,81.04z"/>
  </g>
 </g>
</svg>
